{"glyphs":{"0":{"ha":1003,"x_min":29,"x_max":975,"o":"m 851 105 q 789 40 851 105 q 503 -26 727 -26 q 154 105 278 -26 q 29 486 29 235 q 153 868 29 738 q 503 998 277 998 q 851 868 728 998 q 975 486 975 738 q 851 105 975 235 m 503 195 q 661 267 605 195 q 718 486 718 339 q 662 706 718 634 q 503 778 606 778 q 343 706 399 778 q 286 486 286 634 q 343 267 286 339 q 503 195 399 195 z "},"1":{"ha":825,"x_min":52,"x_max":773,"o":"m 570 200 l 773 200 l 773 0 l 52 0 l 52 200 l 310 200 l 310 719 q 203 663 261 677 q 73 649 145 649 l 73 868 q 310 972 200 868 l 570 972 l 570 200 z "},"2":{"ha":905,"x_min":35,"x_max":870,"o":"m 870 694 q 853 594 870 639 q 808 518 837 549 q 743 463 780 488 q 664 420 706 438 q 578 386 621 402 q 495 351 536 369 q 421 314 454 334 q 363 265 388 294 q 330 200 338 236 l 865 200 l 865 0 l 35 0 l 35 126 q 67 281 35 213 q 150 391 99 349 q 263 465 201 433 q 387 520 325 497 q 500 565 449 543 q 584 616 551 587 q 616 683 616 646 q 581 760 616 731 q 470 788 547 788 q 346 758 393 788 q 298 660 298 728 l 45 660 q 150 911 45 825 q 457 998 254 998 q 763 919 656 998 q 870 694 870 840 z "},"3":{"ha":939,"x_min":34,"x_max":905,"o":"m 457 -26 q 138 56 242 -26 q 35 306 34 137 l 270 306 q 320 211 273 239 q 452 182 367 182 q 595 211 543 182 q 647 295 647 241 q 636 338 647 317 q 603 379 626 359 q 536 410 581 398 q 433 421 492 421 l 390 421 l 390 575 l 433 575 q 533 586 492 575 q 596 615 575 597 q 625 651 616 633 q 633 690 633 669 q 587 764 633 738 q 463 791 541 791 q 290 663 290 791 l 56 663 q 160 913 55 829 q 465 998 265 998 q 764 925 659 998 q 869 732 869 852 q 719 519 869 586 l 719 503 q 854 419 803 480 q 905 267 905 358 q 784 53 905 132 q 457 -26 663 -26 z "},"4":{"ha":1001,"x_min":46,"x_max":961,"o":"m 822 387 l 961 387 l 961 186 l 822 186 l 822 0 l 562 0 l 562 186 l 46 186 l 46 387 l 516 972 l 822 972 l 822 387 m 283 387 l 562 387 l 562 735 l 283 387 z "},"5":{"ha":922,"x_min":38,"x_max":888,"o":"m 452 -26 q 142 57 246 -26 q 41 301 38 140 l 274 301 q 329 210 281 240 q 449 180 376 180 q 591 224 540 180 q 642 337 642 269 q 595 448 642 408 q 462 488 547 488 q 286 414 345 488 l 52 414 l 152 972 l 804 972 l 804 773 l 345 773 l 313 585 q 398 626 341 608 q 534 644 455 644 q 671 623 607 644 q 783 564 734 602 q 860 463 831 525 q 888 324 888 401 q 774 68 888 161 q 452 -26 660 -26 z "},"6":{"ha":921,"x_min":26,"x_max":896,"o":"m 511 626 q 663 607 594 626 q 784 550 732 588 q 866 452 837 513 q 896 313 896 391 q 784 66 896 157 q 470 -26 673 -26 q 26 488 26 -26 q 50 688 26 600 q 115 833 74 776 q 214 928 156 891 q 338 982 273 966 q 479 998 403 998 q 689 963 600 998 q 827 859 777 929 q 878 688 877 788 l 667 688 q 605 773 655 745 q 479 801 555 801 q 270 565 267 801 q 511 626 349 626 m 467 170 q 607 211 555 170 q 660 318 660 251 q 608 424 660 385 q 467 462 557 462 q 329 424 378 462 q 279 318 279 387 q 330 210 279 250 q 467 170 381 170 z "},"7":{"ha":880,"x_min":35,"x_max":850,"o":"m 35 972 l 850 972 l 850 760 l 369 0 l 94 0 l 578 760 l 35 760 l 35 972 z "},"8":{"ha":962,"x_min":35,"x_max":927,"o":"m 481 -26 q 310 -10 386 -26 q 183 34 234 6 q 98 101 132 62 q 50 184 64 140 q 35 280 35 229 q 203 534 35 450 l 203 551 q 130 629 157 579 q 103 739 103 678 q 199 926 103 854 q 481 998 295 998 q 765 926 668 998 q 861 739 861 854 q 833 629 861 679 q 758 551 806 580 l 758 534 q 927 280 927 450 q 903 161 927 215 q 827 65 878 108 q 688 -2 776 22 q 481 -26 600 -26 m 481 602 q 592 630 555 602 q 629 708 629 658 q 591 789 629 760 q 481 817 553 817 q 371 788 410 817 q 332 708 332 760 q 370 630 332 658 q 481 602 408 602 m 481 174 q 625 211 576 174 q 673 311 673 249 q 625 411 673 374 q 481 448 576 448 q 337 411 387 448 q 288 311 288 374 q 337 211 288 249 q 481 174 386 174 z "},"9":{"ha":921,"x_min":26,"x_max":895,"o":"m 452 998 q 895 485 895 998 q 871 284 895 372 q 806 139 847 196 q 707 44 766 81 q 584 -10 649 6 q 442 -26 519 -26 q 233 9 321 -26 q 95 114 144 43 q 44 285 45 184 l 254 285 q 316 199 266 227 q 442 172 367 172 q 652 408 654 172 q 410 346 572 346 q 258 365 327 346 q 137 422 189 385 q 55 520 84 460 q 26 660 26 581 q 137 906 26 815 q 452 998 248 998 m 454 511 q 592 548 543 511 q 642 654 642 585 q 591 762 642 722 q 454 802 540 802 q 314 762 367 802 q 262 654 262 722 q 313 549 262 587 q 454 511 364 511 z "}," ":{"ha":295,"x_min":0,"x_max":0,"o":""},"!":{"ha":357,"x_min":44,"x_max":315,"o":"m 95 347 l 44 972 l 314 972 l 264 347 l 95 347 m 275 21 q 255 2 275 21 q 180 -18 235 -18 q 84 21 124 -18 q 44 116 44 61 q 84 210 44 171 q 180 249 124 249 q 275 210 235 249 q 315 116 315 171 q 275 21 315 61 z "},"\"":{"ha":640,"x_min":58,"x_max":582,"o":"m 77 559 l 58 972 l 288 972 l 270 559 l 77 559 m 370 559 l 352 972 l 582 972 l 564 559 l 370 559 z "},"#":{"ha":950,"x_min":41,"x_max":909,"o":"m 909 585 l 787 585 l 787 401 l 909 401 l 909 208 l 787 208 l 787 0 l 567 0 l 567 208 l 383 208 l 383 0 l 164 0 l 164 208 l 41 208 l 41 401 l 164 401 l 164 585 l 41 585 l 41 764 l 164 764 l 164 972 l 383 972 l 383 764 l 567 764 l 567 972 l 787 972 l 787 764 l 909 764 l 909 585 m 567 401 l 567 585 l 383 585 l 383 401 l 567 401 z "},"$":{"ha":883,"x_min":23,"x_max":857,"o":"m 857 308 q 758 124 857 191 q 486 49 660 58 l 486 -22 l 393 -22 l 393 49 q 245 72 311 53 q 130 124 179 90 q 53 212 80 159 q 23 334 25 265 l 254 334 q 393 228 260 240 l 393 418 q 325 431 351 425 q 258 448 299 436 q 190 471 216 459 q 133 502 163 483 q 83 545 102 522 q 53 600 65 568 q 41 670 41 632 q 137 848 41 782 q 393 922 233 915 l 393 999 l 486 999 l 486 922 q 591 908 543 919 q 683 874 640 897 q 758 821 727 852 q 807 743 789 789 q 825 637 825 696 l 601 637 q 568 713 596 686 q 486 747 539 739 l 486 560 q 692 515 627 539 q 857 308 853 450 m 278 667 q 393 576 278 606 l 393 748 q 310 722 342 743 q 278 667 278 702 m 486 228 q 614 310 614 239 q 585 363 614 343 q 486 399 555 382 l 486 228 z "},"%":{"ha":1286,"x_min":52,"x_max":1233,"o":"m 385 -35 l 270 44 l 901 1012 l 1016 933 l 385 -35 m 304 491 q 117 561 181 491 q 52 739 52 631 q 117 916 52 846 q 304 986 181 986 q 491 916 427 986 q 555 739 555 846 q 491 561 555 631 q 304 491 427 491 m 243 679 q 253 667 243 679 q 304 655 264 655 q 366 679 345 655 q 387 739 387 703 q 366 799 387 775 q 304 822 345 822 q 243 799 264 822 q 222 739 222 775 q 243 679 222 703 m 981 -14 q 793 56 858 -14 q 729 235 729 126 q 793 413 729 342 q 981 483 858 483 q 1168 413 1104 483 q 1233 235 1233 342 q 1168 56 1233 126 q 981 -14 1104 -14 m 919 176 q 929 164 919 176 q 981 152 940 152 q 1042 175 1021 152 q 1063 235 1063 199 q 1042 294 1063 271 q 981 317 1021 317 q 919 294 940 317 q 898 235 898 271 q 919 176 898 199 z "},"&":{"ha":1157,"x_min":35,"x_max":1122,"o":"m 1122 128 l 1013 -24 l 892 66 q 519 -33 745 -33 q 265 6 374 -33 q 95 116 155 44 q 35 285 35 189 q 88 447 35 375 q 250 558 142 519 q 168 736 168 642 q 193 835 168 788 q 267 918 219 882 q 390 976 315 955 q 558 998 466 998 q 724 977 650 998 q 852 915 798 956 q 937 804 907 873 q 966 645 967 736 l 739 645 q 690 767 739 730 q 558 803 642 803 q 447 779 486 803 q 408 712 408 755 q 439 645 408 675 q 572 538 470 614 l 842 338 q 880 509 880 414 l 1110 509 q 1025 201 1107 329 l 1122 128 m 543 172 q 707 205 635 172 l 383 448 q 295 326 295 407 q 315 256 295 286 q 371 208 336 226 q 450 181 406 190 q 543 172 493 172 z "},"'":{"ha":346,"x_min":58,"x_max":288,"o":"m 77 559 l 58 972 l 288 972 l 270 559 l 77 559 z "},"(":{"ha":625,"x_min":29,"x_max":578,"o":"m 578 -168 q 425 -153 496 -168 q 303 -114 355 -138 q 209 -53 251 -90 q 139 22 168 -16 q 90 111 111 61 q 58 205 69 161 q 40 303 47 250 q 31 397 33 357 q 29 486 29 438 q 33 602 29 549 q 49 724 36 654 q 84 848 62 793 q 148 959 106 903 q 246 1054 190 1016 q 388 1115 302 1091 q 578 1139 473 1139 l 578 924 q 479 912 524 924 q 403 881 435 901 q 348 829 371 861 q 310 763 324 798 q 287 682 296 728 q 275 589 278 635 q 272 486 272 543 q 278 343 272 404 q 304 224 285 283 q 357 129 324 166 q 446 70 390 92 q 578 47 502 47 l 578 -168 z "},")":{"ha":625,"x_min":46,"x_max":596,"o":"m 46 -168 l 46 47 q 179 70 123 47 q 268 129 235 92 q 321 224 301 166 q 347 343 340 283 q 353 486 353 404 q 350 589 353 543 q 338 682 347 635 q 315 763 330 728 q 277 829 300 798 q 222 881 254 861 q 145 912 190 901 q 46 924 101 924 l 46 1139 q 199 1124 129 1139 q 322 1085 270 1109 q 416 1024 374 1061 q 486 949 458 987 q 535 860 514 910 q 567 766 555 810 q 585 669 578 722 q 594 574 592 615 q 596 486 596 534 q 594 397 596 438 q 585 303 592 357 q 567 205 578 250 q 535 111 555 161 q 486 22 514 61 q 416 -53 458 -16 q 322 -114 374 -90 q 199 -153 270 -138 q 46 -168 129 -168 z "},"*":{"ha":738,"x_min":58,"x_max":681,"o":"m 681 747 l 500 657 l 681 568 l 602 432 l 435 544 l 448 342 l 290 342 l 304 544 l 136 432 l 58 568 l 239 657 l 58 747 l 136 883 l 303 771 l 290 972 l 448 972 l 435 771 l 602 883 l 681 747 z "},"+":{"ha":861,"x_min":58,"x_max":803,"o":"m 803 590 l 803 383 l 539 383 l 539 119 l 321 119 l 321 383 l 58 383 l 58 590 l 321 590 l 321 854 l 539 854 l 539 590 l 803 590 z "},",":{"ha":402,"x_min":41,"x_max":362,"o":"m 138 -270 q 155 0 158 -146 l 41 0 l 41 219 l 362 219 l 362 168 q 343 -106 362 9 q 300 -270 325 -220 l 138 -270 z "},"-":{"ha":764,"x_min":46,"x_max":718,"o":"m 46 375 l 46 593 l 718 593 l 718 375 l 46 375 z "},".":{"ha":357,"x_min":44,"x_max":315,"o":"m 275 21 q 255 2 275 21 q 180 -18 235 -18 q 84 21 124 -18 q 44 116 44 61 q 84 210 44 171 q 180 249 124 249 q 275 210 235 249 q 315 116 315 171 q 275 21 315 61 z "},"/":{"ha":767,"x_min":12,"x_max":755,"o":"m 12 0 l 460 972 l 755 972 l 307 0 l 12 0 z "},":":{"ha":357,"x_min":44,"x_max":315,"o":"m 275 639 q 255 619 275 639 q 180 600 235 600 q 84 639 124 600 q 44 734 44 679 q 84 828 44 789 q 180 867 124 867 q 275 828 235 867 q 315 734 315 789 q 275 639 315 679 m 275 133 q 255 113 275 133 q 180 94 235 94 q 84 133 124 94 q 44 228 44 173 q 84 322 44 283 q 180 361 124 361 q 275 322 235 361 q 315 228 315 283 q 275 133 315 173 z "},";":{"ha":408,"x_min":44,"x_max":366,"o":"m 305 639 q 285 619 305 639 q 210 600 265 600 q 114 639 154 600 q 74 734 74 679 q 114 828 74 789 q 210 867 154 867 q 305 828 265 867 q 345 734 345 789 q 305 639 345 679 m 141 -149 q 159 120 161 -25 l 44 120 l 44 339 l 366 339 l 366 288 q 347 15 366 130 q 303 -149 328 -100 l 141 -149 z "},"<":{"ha":774,"x_min":58,"x_max":716,"o":"m 716 110 l 58 338 l 58 631 l 716 863 l 716 637 l 260 498 l 260 471 l 716 331 l 716 110 z "},"=":{"ha":791,"x_min":58,"x_max":734,"o":"m 58 517 l 58 735 l 734 735 l 734 517 l 58 517 m 58 239 l 58 456 l 734 456 l 734 239 l 58 239 z "},">":{"ha":791,"x_min":75,"x_max":734,"o":"m 75 110 l 75 331 l 531 471 l 531 498 l 75 637 l 75 863 l 734 631 l 734 338 l 75 110 z "},"?":{"ha":885,"x_min":17,"x_max":862,"o":"m 316 340 q 317 420 311 385 q 339 480 324 456 q 376 522 355 504 q 423 553 398 541 q 473 576 448 566 q 522 597 498 587 q 564 620 546 608 q 593 649 583 631 q 604 688 604 666 q 560 762 604 734 q 444 789 515 789 q 375 782 406 789 q 317 758 344 774 q 274 710 290 741 q 259 637 259 680 l 23 637 q 127 908 17 819 q 442 998 237 998 q 613 981 537 998 q 745 930 689 964 q 832 842 802 897 q 862 716 862 788 q 846 624 862 663 q 803 561 829 584 q 745 519 777 537 q 682 487 713 502 q 623 454 650 472 q 580 408 597 437 q 564 340 564 380 l 316 340 m 535 21 q 516 2 535 21 q 440 -18 496 -18 q 345 21 385 -18 q 304 116 304 61 q 345 210 304 171 q 440 249 385 249 q 535 210 496 249 q 575 116 575 171 q 535 21 575 61 z "},"@":{"ha":1127,"x_min":29,"x_max":1099,"o":"m 1044 244 q 863 44 991 121 q 564 -33 735 -33 q 346 6 446 -33 q 177 113 246 45 q 68 277 107 181 q 29 486 29 374 q 96 754 29 636 q 285 938 163 872 q 564 1004 407 1004 q 781 965 680 1004 q 951 859 882 926 q 1059 698 1020 791 q 1099 500 1099 605 q 1052 370 1099 414 q 922 326 1005 326 q 817 359 848 326 q 789 450 785 392 l 817 741 l 724 741 l 701 688 l 688 688 q 621 738 659 719 q 521 757 583 757 q 344 683 416 757 q 272 483 272 610 q 345 281 272 356 q 527 207 417 207 q 633 231 588 207 q 703 298 677 256 l 718 298 q 785 231 740 256 q 892 207 830 207 q 979 219 940 207 q 1040 248 1019 231 l 1044 244 m 534 640 q 626 597 591 640 q 661 480 661 553 q 626 366 661 408 q 534 324 591 324 q 438 366 475 324 q 401 480 401 408 q 438 596 401 553 q 534 640 475 640 z "},"A":{"ha":1129,"x_min":12,"x_max":1118,"o":"m 848 0 l 794 152 l 336 152 l 281 0 l 12 0 l 382 972 l 748 972 l 1118 0 l 848 0 m 405 347 l 724 347 l 589 727 l 542 727 l 405 347 z "},"B":{"ha":1027,"x_min":46,"x_max":993,"o":"m 832 508 q 993 274 993 436 q 895 74 993 147 q 589 0 798 0 l 46 0 l 46 972 l 595 972 q 742 959 677 972 q 848 922 806 945 q 916 866 889 899 q 954 798 943 833 q 964 720 964 762 q 930 600 964 646 q 832 523 896 553 l 832 508 m 573 771 l 308 771 l 308 578 l 573 578 q 679 603 643 578 q 714 673 714 629 q 679 745 714 719 q 573 771 643 771 m 583 203 q 691 234 653 203 q 729 316 729 265 q 691 394 729 365 q 583 422 654 422 l 308 422 l 308 203 l 583 203 z "},"C":{"ha":1085,"x_min":29,"x_max":1057,"o":"m 566 -33 q 348 6 448 -33 q 178 112 248 44 q 68 276 108 180 q 29 486 29 373 q 97 756 29 638 q 287 939 164 874 q 566 1004 409 1004 q 699 992 636 1004 q 822 951 762 980 q 930 877 883 922 q 1010 763 977 832 q 1057 606 1044 694 l 808 606 q 718 736 781 694 q 566 779 656 779 q 368 697 447 779 q 288 486 288 615 q 368 275 288 357 q 566 193 447 193 q 718 237 656 193 q 808 368 781 280 l 1057 368 q 1010 211 1044 281 q 930 97 977 142 q 823 22 884 52 q 699 -20 762 -7 q 566 -33 636 -33 z "},"D":{"ha":1067,"x_min":46,"x_max":1032,"o":"m 507 972 q 751 936 648 972 q 915 833 854 900 q 1004 680 975 766 q 1032 486 1032 594 q 1015 329 1032 401 q 958 196 998 258 q 858 91 918 134 q 709 24 798 48 q 507 0 620 0 l 46 0 l 46 972 l 507 972 m 507 220 q 703 288 634 220 q 771 486 771 355 q 703 686 771 618 q 507 753 634 753 l 309 753 l 308 220 l 507 220 z "},"E":{"ha":930,"x_min":46,"x_max":884,"o":"m 46 0 l 46 972 l 884 972 l 884 760 l 308 760 l 308 578 l 863 578 l 863 396 l 308 396 l 308 212 l 884 212 l 884 0 l 46 0 z "},"F":{"ha":929,"x_min":46,"x_max":883,"o":"m 46 0 l 46 972 l 883 972 l 883 755 l 308 755 l 308 558 l 853 558 l 853 365 l 308 365 l 308 0 l 46 0 z "},"G":{"ha":1121,"x_min":29,"x_max":1069,"o":"m 1069 522 l 1069 0 l 916 0 l 912 136 q 767 13 859 59 q 551 -33 675 -33 q 345 6 441 -33 q 179 112 249 44 q 70 276 110 179 q 29 486 29 374 q 97 756 29 639 q 288 939 164 874 q 573 1004 412 1004 q 703 992 640 1004 q 824 952 765 979 q 929 884 883 924 q 1010 784 976 844 q 1058 652 1044 725 l 799 652 q 716 744 775 709 q 578 779 658 779 q 370 697 451 779 q 288 486 288 616 q 369 275 288 357 q 570 193 449 193 q 624 198 597 193 q 682 214 650 202 q 739 243 713 225 q 785 292 764 262 q 816 362 806 323 l 557 362 l 557 522 l 1069 522 z "},"H":{"ha":1062,"x_min":46,"x_max":1016,"o":"m 755 972 l 1016 972 l 1016 0 l 755 0 l 755 377 l 308 377 l 308 0 l 46 0 l 46 972 l 308 972 l 308 595 l 755 595 l 755 972 z "},"I":{"ha":354,"x_min":46,"x_max":308,"o":"m 46 0 l 46 972 l 308 972 l 308 0 l 46 0 z "},"J":{"ha":922,"x_min":34,"x_max":876,"o":"m 449 -33 q 312 -20 374 -33 q 198 20 251 -8 q 109 94 144 49 q 54 206 73 138 q 35 362 34 274 l 295 362 q 308 280 295 315 q 343 226 321 245 q 393 198 366 207 q 454 190 420 190 q 513 199 486 190 q 564 229 539 208 q 602 292 588 250 q 616 393 616 334 l 616 972 l 876 972 l 876 404 q 847 200 876 286 q 762 64 819 115 q 628 -9 705 14 q 449 -33 551 -33 z "},"K":{"ha":1045,"x_min":46,"x_max":1048,"o":"m 1048 0 l 779 0 l 480 383 l 463 383 l 307 220 l 307 0 l 46 0 l 46 972 l 307 972 l 307 534 l 324 534 l 736 972 l 1029 972 l 627 541 l 1048 0 z "},"L":{"ha":895,"x_min":46,"x_max":854,"o":"m 46 0 l 46 972 l 308 972 l 308 219 l 854 219 l 854 0 l 46 0 z "},"M":{"ha":1202,"x_min":46,"x_max":1156,"o":"m 46 0 l 46 972 l 378 972 l 591 334 l 611 334 l 824 972 l 1156 972 l 1156 0 l 906 0 l 906 534 l 884 534 l 701 0 l 501 0 l 318 534 l 296 534 l 296 0 l 46 0 z "},"N":{"ha":1081,"x_min":46,"x_max":1035,"o":"m 46 0 l 46 972 l 349 972 l 757 361 l 780 361 l 780 972 l 1035 972 l 1035 0 l 740 0 l 326 611 l 301 611 l 301 0 l 46 0 z "},"O":{"ha":1137,"x_min":29,"x_max":1109,"o":"m 570 -33 q 287 33 410 -33 q 96 216 163 98 q 29 486 29 334 q 96 756 29 639 q 287 939 163 874 q 570 1004 410 1004 q 960 861 811 1004 q 1109 486 1109 718 q 1042 216 1109 334 q 852 33 975 98 q 570 -33 729 -33 m 570 193 q 770 274 690 193 q 850 486 850 355 q 770 699 850 618 q 570 779 690 779 q 368 699 448 779 q 288 486 288 618 q 368 274 288 355 q 570 193 448 193 z "},"P":{"ha":1011,"x_min":46,"x_max":977,"o":"m 46 0 l 46 972 l 570 972 q 872 881 768 972 q 977 609 977 789 q 872 336 977 429 q 570 244 768 244 l 308 244 l 308 0 l 46 0 m 308 462 l 550 462 q 672 499 628 462 q 715 609 715 537 q 672 718 715 680 q 551 755 628 755 l 308 755 l 308 462 z "},"Q":{"ha":1137,"x_min":29,"x_max":1109,"o":"m 1109 495 q 975 165 1109 305 l 1104 35 q 958 -115 1044 -42 l 809 23 q 570 -33 690 -33 q 287 33 410 -33 q 96 216 163 98 q 29 486 29 334 q 96 756 29 639 q 287 939 163 874 q 570 1004 410 1004 q 790 967 689 1004 q 961 862 890 929 q 1070 700 1031 795 q 1109 495 1109 606 m 288 486 q 368 274 288 355 q 570 193 448 193 q 770 274 690 193 q 850 486 850 355 q 770 699 850 618 q 570 779 690 779 q 368 699 448 779 q 288 486 288 618 z "},"R":{"ha":1031,"x_min":46,"x_max":1006,"o":"m 1006 0 l 748 0 l 598 277 l 308 277 l 308 0 l 46 0 l 46 972 l 573 972 q 875 883 771 972 q 979 617 979 793 q 937 446 979 519 q 822 330 895 373 l 1006 0 m 308 755 l 308 475 l 557 475 q 677 510 636 475 q 719 614 719 546 q 677 719 719 683 q 557 755 635 755 l 308 755 z "},"S":{"ha":987,"x_min":20,"x_max":961,"o":"m 488 -33 q 136 51 252 -33 q 23 309 20 134 l 259 309 q 320 210 264 245 q 488 174 377 174 q 646 203 591 173 q 701 283 701 233 q 666 352 701 326 q 551 390 631 377 l 429 411 q 367 422 392 417 q 307 435 342 427 q 248 452 272 444 q 195 473 224 460 q 146 501 165 486 q 107 537 127 516 q 75 583 87 558 q 56 638 64 607 q 49 706 49 669 q 163 926 49 847 q 488 1004 277 1004 q 636 994 570 1004 q 758 959 702 983 q 852 895 814 934 q 912 799 890 857 q 933 667 933 741 l 699 667 q 484 800 677 800 q 346 772 393 800 q 300 694 300 744 q 427 594 300 615 l 532 575 q 571 568 545 573 q 650 554 623 559 q 726 537 677 549 q 801 511 774 524 q 863 476 828 498 q 916 427 898 454 q 948 361 935 400 q 961 275 961 323 q 841 45 961 124 q 488 -33 721 -33 z "},"T":{"ha":1061,"x_min":41,"x_max":1021,"o":"m 1021 972 l 1021 755 l 661 755 l 661 0 l 401 0 l 401 755 l 41 755 l 41 972 l 1021 972 z "},"U":{"ha":1053,"x_min":46,"x_max":1007,"o":"m 527 -33 q 168 77 290 -33 q 46 411 46 187 l 46 972 l 309 972 l 309 418 q 364 247 309 307 q 527 187 418 187 q 691 248 636 187 q 747 418 747 308 l 747 972 l 1007 972 l 1007 412 q 527 -33 1007 -33 z "},"V":{"ha":1129,"x_min":12,"x_max":1118,"o":"m 382 0 l 12 972 l 281 972 l 550 247 l 581 247 l 848 972 l 1118 972 l 748 0 l 382 0 z "},"W":{"ha":1455,"x_min":26,"x_max":1430,"o":"m 234 0 l 26 972 l 290 972 l 428 279 l 452 279 l 621 972 l 835 972 l 1004 279 l 1028 279 l 1166 972 l 1430 972 l 1222 0 l 869 0 l 740 565 l 716 565 l 587 0 l 234 0 z "},"X":{"ha":1029,"x_min":6,"x_max":1023,"o":"m 6 0 l 351 486 l 351 500 l 14 972 l 298 972 l 503 673 l 527 673 l 732 972 l 1015 972 l 681 500 l 681 486 l 1023 0 l 737 0 l 527 311 l 503 311 l 292 0 l 6 0 z "},"Y":{"ha":1073,"x_min":6,"x_max":1067,"o":"m 1067 972 l 667 308 l 667 0 l 406 0 l 406 309 l 6 972 l 282 972 l 524 560 l 549 560 l 791 972 l 1067 972 z "},"Z":{"ha":941,"x_min":29,"x_max":912,"o":"m 29 0 l 29 212 l 576 734 l 576 755 l 43 755 l 43 972 l 912 972 l 912 762 l 360 239 l 360 219 l 905 219 l 905 0 l 29 0 z "},"[":{"ha":612,"x_min":46,"x_max":566,"o":"m 46 -156 l 46 1128 l 566 1128 l 566 911 l 308 911 l 308 62 l 566 62 l 566 -156 l 46 -156 z "},"\\":{"ha":767,"x_min":12,"x_max":755,"o":"m 755 0 l 460 0 l 12 972 l 307 972 l 755 0 z "},"]":{"ha":612,"x_min":46,"x_max":566,"o":"m 566 -156 l 46 -156 l 46 62 l 304 62 l 304 911 l 46 911 l 46 1128 l 566 1128 l 566 -156 z "},"^":{"ha":857,"x_min":52,"x_max":806,"o":"m 52 353 l 280 1012 l 573 1012 l 806 353 l 580 353 l 440 809 l 413 809 l 273 353 l 52 353 z "},"_":{"ha":827,"x_min":58,"x_max":770,"o":"m 58 -219 l 58 0 l 770 0 l 770 -219 l 58 -219 z "},"`":{"ha":315,"x_min":0,"x_max":315,"o":"m 315 787 l 82 787 l 0 981 l 233 981 l 315 787 z "},"a":{"ha":1129,"x_min":12,"x_max":1118,"o":"m 848 0 l 794 152 l 336 152 l 281 0 l 12 0 l 382 972 l 748 972 l 1118 0 l 848 0 m 405 347 l 724 347 l 589 727 l 542 727 l 405 347 z "},"b":{"ha":1027,"x_min":46,"x_max":993,"o":"m 832 508 q 993 274 993 436 q 895 74 993 147 q 589 0 798 0 l 46 0 l 46 972 l 595 972 q 742 959 677 972 q 848 922 806 945 q 916 866 889 899 q 954 798 943 833 q 964 720 964 762 q 930 600 964 646 q 832 523 896 553 l 832 508 m 573 771 l 308 771 l 308 578 l 573 578 q 679 603 643 578 q 714 673 714 629 q 679 745 714 719 q 573 771 643 771 m 583 203 q 691 234 653 203 q 729 316 729 265 q 691 394 729 365 q 583 422 654 422 l 308 422 l 308 203 l 583 203 z "},"c":{"ha":1085,"x_min":29,"x_max":1057,"o":"m 566 -33 q 348 6 448 -33 q 178 112 248 44 q 68 276 108 180 q 29 486 29 373 q 97 756 29 638 q 287 939 164 874 q 566 1004 409 1004 q 699 992 636 1004 q 822 951 762 980 q 930 877 883 922 q 1010 763 977 832 q 1057 606 1044 694 l 808 606 q 718 736 781 694 q 566 779 656 779 q 368 697 447 779 q 288 486 288 615 q 368 275 288 357 q 566 193 447 193 q 718 237 656 193 q 808 368 781 280 l 1057 368 q 1010 211 1044 281 q 930 97 977 142 q 823 22 884 52 q 699 -20 762 -7 q 566 -33 636 -33 z "},"d":{"ha":1067,"x_min":46,"x_max":1032,"o":"m 507 972 q 751 936 648 972 q 915 833 854 900 q 1004 680 975 766 q 1032 486 1032 594 q 1015 329 1032 401 q 958 196 998 258 q 858 91 918 134 q 709 24 798 48 q 507 0 620 0 l 46 0 l 46 972 l 507 972 m 507 220 q 703 288 634 220 q 771 486 771 355 q 703 686 771 618 q 507 753 634 753 l 309 753 l 308 220 l 507 220 z "},"e":{"ha":930,"x_min":46,"x_max":884,"o":"m 46 0 l 46 972 l 884 972 l 884 760 l 308 760 l 308 578 l 863 578 l 863 396 l 308 396 l 308 212 l 884 212 l 884 0 l 46 0 z "},"f":{"ha":929,"x_min":46,"x_max":883,"o":"m 46 0 l 46 972 l 883 972 l 883 755 l 308 755 l 308 558 l 853 558 l 853 365 l 308 365 l 308 0 l 46 0 z "},"g":{"ha":1121,"x_min":29,"x_max":1069,"o":"m 1069 522 l 1069 0 l 916 0 l 912 136 q 767 13 859 59 q 551 -33 675 -33 q 345 6 441 -33 q 179 112 249 44 q 70 276 110 179 q 29 486 29 374 q 97 756 29 639 q 288 939 164 874 q 573 1004 412 1004 q 703 992 640 1004 q 824 952 765 979 q 929 884 883 924 q 1010 784 976 844 q 1058 652 1044 725 l 799 652 q 716 744 775 709 q 578 779 658 779 q 370 697 451 779 q 288 486 288 616 q 369 275 288 357 q 570 193 449 193 q 624 198 597 193 q 682 214 650 202 q 739 243 713 225 q 785 292 764 262 q 816 362 806 323 l 557 362 l 557 522 l 1069 522 z "},"h":{"ha":1062,"x_min":46,"x_max":1016,"o":"m 755 972 l 1016 972 l 1016 0 l 755 0 l 755 377 l 308 377 l 308 0 l 46 0 l 46 972 l 308 972 l 308 595 l 755 595 l 755 972 z "},"i":{"ha":354,"x_min":46,"x_max":308,"o":"m 46 0 l 46 972 l 308 972 l 308 0 l 46 0 z "},"j":{"ha":922,"x_min":34,"x_max":876,"o":"m 449 -33 q 312 -20 374 -33 q 198 20 251 -8 q 109 94 144 49 q 54 206 73 138 q 35 362 34 274 l 295 362 q 308 280 295 315 q 343 226 321 245 q 393 198 366 207 q 454 190 420 190 q 513 199 486 190 q 564 229 539 208 q 602 292 588 250 q 616 393 616 334 l 616 972 l 876 972 l 876 404 q 847 200 876 286 q 762 64 819 115 q 628 -9 705 14 q 449 -33 551 -33 z "},"k":{"ha":1045,"x_min":46,"x_max":1048,"o":"m 1048 0 l 779 0 l 480 383 l 463 383 l 307 220 l 307 0 l 46 0 l 46 972 l 307 972 l 307 534 l 324 534 l 736 972 l 1029 972 l 627 541 l 1048 0 z "},"l":{"ha":895,"x_min":46,"x_max":854,"o":"m 46 0 l 46 972 l 308 972 l 308 219 l 854 219 l 854 0 l 46 0 z "},"m":{"ha":1202,"x_min":46,"x_max":1156,"o":"m 46 0 l 46 972 l 378 972 l 591 334 l 611 334 l 824 972 l 1156 972 l 1156 0 l 906 0 l 906 534 l 884 534 l 701 0 l 501 0 l 318 534 l 296 534 l 296 0 l 46 0 z "},"n":{"ha":1081,"x_min":46,"x_max":1035,"o":"m 46 0 l 46 972 l 349 972 l 757 361 l 780 361 l 780 972 l 1035 972 l 1035 0 l 740 0 l 326 611 l 301 611 l 301 0 l 46 0 z "},"o":{"ha":1137,"x_min":29,"x_max":1109,"o":"m 570 -33 q 287 33 410 -33 q 96 216 163 98 q 29 486 29 334 q 96 756 29 639 q 287 939 163 874 q 570 1004 410 1004 q 960 861 811 1004 q 1109 486 1109 718 q 1042 216 1109 334 q 852 33 975 98 q 570 -33 729 -33 m 570 193 q 770 274 690 193 q 850 486 850 355 q 770 699 850 618 q 570 779 690 779 q 368 699 448 779 q 288 486 288 618 q 368 274 288 355 q 570 193 448 193 z "},"p":{"ha":1011,"x_min":46,"x_max":977,"o":"m 46 0 l 46 972 l 570 972 q 872 881 768 972 q 977 609 977 789 q 872 336 977 429 q 570 244 768 244 l 308 244 l 308 0 l 46 0 m 308 462 l 550 462 q 672 499 628 462 q 715 609 715 537 q 672 718 715 680 q 551 755 628 755 l 308 755 l 308 462 z "},"q":{"ha":1137,"x_min":29,"x_max":1109,"o":"m 1109 495 q 975 165 1109 305 l 1104 35 q 958 -115 1044 -42 l 809 23 q 570 -33 690 -33 q 287 33 410 -33 q 96 216 163 98 q 29 486 29 334 q 96 756 29 639 q 287 939 163 874 q 570 1004 410 1004 q 790 967 689 1004 q 961 862 890 929 q 1070 700 1031 795 q 1109 495 1109 606 m 288 486 q 368 274 288 355 q 570 193 448 193 q 770 274 690 193 q 850 486 850 355 q 770 699 850 618 q 570 779 690 779 q 368 699 448 779 q 288 486 288 618 z "},"r":{"ha":1031,"x_min":46,"x_max":1006,"o":"m 1006 0 l 748 0 l 598 277 l 308 277 l 308 0 l 46 0 l 46 972 l 573 972 q 875 883 771 972 q 979 617 979 793 q 937 446 979 519 q 822 330 895 373 l 1006 0 m 308 755 l 308 475 l 557 475 q 677 510 636 475 q 719 614 719 546 q 677 719 719 683 q 557 755 635 755 l 308 755 z "},"s":{"ha":987,"x_min":20,"x_max":961,"o":"m 488 -33 q 136 51 252 -33 q 23 309 20 134 l 259 309 q 320 210 264 245 q 488 174 377 174 q 646 203 591 173 q 701 283 701 233 q 666 352 701 326 q 551 390 631 377 l 429 411 q 367 422 392 417 q 307 435 342 427 q 248 452 272 444 q 195 473 224 460 q 146 501 165 486 q 107 537 127 516 q 75 583 87 558 q 56 638 64 607 q 49 706 49 669 q 163 926 49 847 q 488 1004 277 1004 q 636 994 570 1004 q 758 959 702 983 q 852 895 814 934 q 912 799 890 857 q 933 667 933 741 l 699 667 q 484 800 677 800 q 346 772 393 800 q 300 694 300 744 q 427 594 300 615 l 532 575 q 571 568 545 573 q 650 554 623 559 q 726 537 677 549 q 801 511 774 524 q 863 476 828 498 q 916 427 898 454 q 948 361 935 400 q 961 275 961 323 q 841 45 961 124 q 488 -33 721 -33 z "},"t":{"ha":1061,"x_min":41,"x_max":1021,"o":"m 1021 972 l 1021 755 l 661 755 l 661 0 l 401 0 l 401 755 l 41 755 l 41 972 l 1021 972 z "},"u":{"ha":1053,"x_min":46,"x_max":1007,"o":"m 527 -33 q 168 77 290 -33 q 46 411 46 187 l 46 972 l 309 972 l 309 418 q 364 247 309 307 q 527 187 418 187 q 691 248 636 187 q 747 418 747 308 l 747 972 l 1007 972 l 1007 412 q 527 -33 1007 -33 z "},"v":{"ha":1129,"x_min":12,"x_max":1118,"o":"m 382 0 l 12 972 l 281 972 l 550 247 l 581 247 l 848 972 l 1118 972 l 748 0 l 382 0 z "},"w":{"ha":1455,"x_min":26,"x_max":1430,"o":"m 234 0 l 26 972 l 290 972 l 428 279 l 452 279 l 621 972 l 835 972 l 1004 279 l 1028 279 l 1166 972 l 1430 972 l 1222 0 l 869 0 l 740 565 l 716 565 l 587 0 l 234 0 z "},"x":{"ha":1029,"x_min":6,"x_max":1023,"o":"m 6 0 l 351 486 l 351 500 l 14 972 l 298 972 l 503 673 l 527 673 l 732 972 l 1015 972 l 681 500 l 681 486 l 1023 0 l 737 0 l 527 311 l 503 311 l 292 0 l 6 0 z "},"y":{"ha":1073,"x_min":6,"x_max":1067,"o":"m 1067 972 l 667 308 l 667 0 l 406 0 l 406 309 l 6 972 l 282 972 l 524 560 l 549 560 l 791 972 l 1067 972 z "},"z":{"ha":941,"x_min":29,"x_max":912,"o":"m 29 0 l 29 212 l 576 734 l 576 755 l 43 755 l 43 972 l 912 972 l 912 762 l 360 239 l 360 219 l 905 219 l 905 0 l 29 0 z "},"{":{"ha":766,"x_min":52,"x_max":714,"o":"m 349 -156 q 297 -150 321 -156 q 249 -129 273 -144 q 209 -81 224 -113 q 195 -2 195 -48 l 195 309 l 52 473 l 52 499 l 195 665 l 195 975 q 210 1053 195 1021 q 250 1101 224 1086 q 298 1122 275 1116 q 349 1128 322 1128 l 714 1128 l 714 911 l 503 911 q 455 869 455 911 l 455 657 l 326 499 l 326 473 l 455 315 l 455 104 q 503 62 455 62 l 714 62 l 714 -156 l 349 -156 z "},"|":{"ha":354,"x_min":46,"x_max":308,"o":"m 46 -116 l 46 1088 l 308 1088 l 308 -116 l 46 -116 z "},"}":{"ha":766,"x_min":52,"x_max":714,"o":"m 418 -156 l 52 -156 l 52 62 l 262 62 q 311 104 311 62 l 311 315 l 441 473 l 441 499 l 311 657 l 311 869 q 262 911 311 911 l 52 911 l 52 1128 l 418 1128 q 468 1122 444 1128 q 517 1101 492 1116 q 557 1053 542 1086 q 572 975 572 1021 l 572 665 l 714 499 l 714 473 l 572 309 l 572 -2 q 557 -81 572 -48 q 518 -129 543 -113 q 469 -150 493 -144 q 418 -156 446 -156 z "},"~":{"ha":788,"x_min":54,"x_max":734,"o":"m 521 365 q 440 380 481 366 q 373 413 400 395 q 311 444 345 430 q 247 458 277 458 q 186 439 209 458 q 161 389 164 420 l 60 389 q 68 491 54 446 q 112 563 82 536 q 182 603 142 589 q 267 617 222 617 q 346 603 307 617 q 413 571 386 588 q 475 538 441 553 q 541 523 510 524 q 601 543 578 524 q 627 593 624 562 l 728 593 q 720 491 734 536 q 675 420 705 446 q 605 379 644 393 q 521 365 566 366 z "},"¡":{"ha":556,"x_min":45,"x_max":316,"o":"m 85 701 q 105 721 85 701 q 180 741 125 741 q 276 701 236 741 q 316 606 316 661 q 276 512 316 551 q 180 473 236 473 q 85 512 125 473 q 45 606 45 551 q 85 701 45 661 m 96 375 l 265 375 l 315 -250 l 45 -250 l 96 375 z "},"¢":{"ha":993,"x_min":30,"x_max":964,"o":"m 519 220 q 656 259 600 220 q 739 378 713 299 l 964 378 q 922 236 953 298 q 849 132 892 173 q 752 64 807 91 q 639 26 696 37 q 519 15 582 15 q 344 41 425 15 l 324 0 l 222 0 l 258 77 q 91 243 151 137 q 30 486 30 350 q 165 826 30 696 q 519 957 301 957 q 657 942 591 957 l 671 972 l 773 972 l 745 912 q 964 595 930 825 l 739 595 q 654 714 713 674 l 432 234 q 519 220 473 220 m 265 486 q 352 280 265 357 l 568 749 q 519 752 541 752 q 337 677 410 752 q 265 486 265 603 z "},"£":{"ha":907,"x_min":29,"x_max":886,"o":"m 463 783 q 346 749 388 783 q 304 660 304 715 q 313 608 304 631 q 339 552 321 585 q 363 507 357 519 l 716 507 l 716 389 l 385 389 q 287 210 376 270 l 287 200 l 876 200 l 876 0 l 29 0 l 29 200 q 134 283 90 229 q 178 389 178 338 l 29 389 l 29 507 l 132 507 q 121 525 131 509 q 109 544 111 541 q 98 563 107 548 q 87 584 90 578 q 78 605 85 591 q 70 629 72 619 q 63 653 67 639 q 59 680 60 667 q 58 708 58 694 q 168 918 58 839 q 469 998 278 998 q 694 960 600 998 q 837 846 788 923 q 876 660 886 768 l 629 660 q 577 753 622 724 q 463 783 532 783 z "},"¤":{"ha":922,"x_min":116,"x_max":807,"o":"m 779 661 q 748 527 779 591 l 807 467 l 686 349 l 634 399 q 462 349 555 349 q 290 401 368 349 l 236 349 l 116 467 l 176 528 q 146 661 146 589 q 180 800 146 735 l 116 863 l 236 983 l 294 925 q 462 972 372 972 q 629 926 550 972 l 686 983 l 807 863 l 745 801 q 779 661 779 734 m 399 518 q 413 513 399 518 q 462 507 427 507 q 525 518 496 507 q 571 547 553 530 q 601 586 589 564 q 618 626 613 607 q 623 661 623 645 q 618 696 623 677 q 601 737 613 715 q 571 777 589 759 q 525 806 553 794 q 462 817 496 817 q 399 806 427 817 q 353 777 370 794 q 323 737 335 759 q 306 696 311 715 q 301 661 301 677 q 306 626 301 645 q 323 586 311 607 q 353 547 335 564 q 399 518 370 530 z "},"¥":{"ha":1073,"x_min":6,"x_max":1067,"o":"m 1067 972 l 728 408 l 971 408 l 971 295 l 667 295 l 667 242 l 971 242 l 971 127 l 667 127 l 667 0 l 406 0 l 406 127 l 108 127 l 108 242 l 406 242 l 406 295 l 108 295 l 108 408 l 346 408 l 6 972 l 282 972 l 524 560 l 549 560 l 791 972 l 1067 972 z "},"¦":{"ha":354,"x_min":46,"x_max":308,"o":"m 46 541 l 46 1088 l 308 1088 l 308 541 l 46 541 m 46 -116 l 46 433 l 308 433 l 308 -116 l 46 -116 z "},"§":{"ha":988,"x_min":20,"x_max":962,"o":"m 853 215 q 962 8 962 147 q 842 -222 962 -143 q 488 -300 723 -300 q 137 -216 253 -300 q 23 44 20 -133 l 260 44 q 488 -95 271 -93 q 648 -65 591 -95 q 704 16 704 -35 q 551 127 704 102 l 433 148 q 372 158 395 154 q 313 171 349 163 q 253 187 277 179 q 200 207 230 195 q 150 234 170 220 q 110 268 131 248 q 78 310 90 288 q 59 363 66 333 q 51 427 51 393 q 185 637 51 570 q 51 860 51 706 q 165 1080 51 1001 q 491 1158 279 1158 q 638 1148 572 1158 q 760 1112 704 1137 q 854 1048 817 1087 q 913 952 892 1010 q 934 819 935 894 l 701 819 q 485 954 679 954 q 348 925 395 954 q 301 848 301 897 q 431 743 301 768 l 532 724 q 584 715 549 721 q 789 667 726 691 q 952 506 922 616 q 962 429 962 471 q 853 215 962 287 m 301 439 q 333 367 301 400 q 433 321 366 334 l 516 307 q 654 336 605 298 q 704 429 704 375 q 666 504 704 472 q 551 549 628 536 l 471 562 q 395 556 433 568 q 329 513 356 545 q 301 439 301 482 z "},"¨":{"ha":534,"x_min":0,"x_max":534,"o":"m 103 796 q 30 824 60 796 q 0 895 0 852 q 30 965 0 937 q 103 993 60 993 q 176 965 146 993 q 206 895 206 937 q 176 824 206 852 q 103 796 146 796 m 432 796 q 359 824 389 796 q 329 895 329 852 q 359 965 329 937 q 432 993 389 993 q 504 965 474 993 q 534 895 534 937 q 504 824 534 852 q 432 796 474 796 z "},"©":{"ha":734,"x_min":52,"x_max":682,"o":"m 366 373 q 140 461 227 373 q 52 684 52 549 q 140 909 52 821 q 366 998 227 998 q 593 909 505 998 q 682 684 682 821 q 593 460 682 548 q 366 373 505 373 m 370 500 q 443 512 409 500 q 504 553 476 524 q 539 627 531 583 l 458 627 q 367 570 431 570 q 290 600 321 570 q 259 684 259 630 q 290 769 259 739 q 367 799 321 799 q 458 743 431 799 l 539 743 q 479 839 527 807 q 370 870 431 870 q 233 819 286 870 q 180 684 180 767 q 234 551 180 603 q 370 500 287 500 z "},"ª":{"ha":635,"x_min":52,"x_max":583,"o":"m 457 972 l 583 972 l 583 472 l 457 472 l 435 521 q 298 472 373 472 q 125 546 197 472 q 52 726 52 621 q 125 905 52 831 q 298 979 197 979 q 439 928 375 979 l 457 972 m 239 657 q 253 643 239 657 q 310 629 267 629 q 380 657 353 629 q 408 726 408 685 q 380 795 408 766 q 310 824 352 824 q 239 795 268 824 q 211 726 211 766 q 239 657 211 685 z "},"«":{"ha":995,"x_min":69,"x_max":926,"o":"m 565 151 l 294 151 l 69 486 l 294 822 l 565 822 l 340 486 l 565 151 m 926 151 l 655 151 l 431 486 l 655 822 l 926 822 l 701 486 l 926 151 z "},"¬":{"ha":824,"x_min":6,"x_max":766,"o":"m 544 337 l 544 450 l 6 450 l 6 635 l 766 635 l 766 337 l 544 337 z "},"­":{"ha":764,"x_min":46,"x_max":718,"o":"m 46 375 l 46 593 l 718 593 l 718 375 l 46 375 z "},"®":{"ha":734,"x_min":52,"x_max":682,"o":"m 366 373 q 140 461 227 373 q 52 684 52 549 q 140 909 52 821 q 366 998 227 998 q 593 909 505 998 q 682 684 682 821 q 593 460 682 548 q 366 373 505 373 m 216 500 l 298 500 l 298 611 l 399 611 l 463 500 l 552 500 l 475 629 q 542 736 542 661 q 502 828 542 795 q 388 861 461 861 l 216 861 l 216 500 m 298 680 l 298 793 l 390 793 q 438 778 421 793 q 456 736 456 764 q 438 694 456 709 q 390 680 420 680 l 298 680 z "},"¯":{"ha":486,"x_min":0,"x_max":486,"o":"m 0 791 l 0 984 l 486 984 l 486 791 l 0 791 z "},"°":{"ha":614,"x_min":49,"x_max":566,"o":"m 308 464 q 123 537 197 464 q 49 722 49 610 q 123 906 49 833 q 308 979 197 979 q 492 906 418 979 q 566 722 566 833 q 492 537 566 611 q 308 464 418 464 m 242 660 q 253 647 242 660 q 308 633 264 633 q 374 660 351 633 q 397 722 397 687 q 374 784 397 757 q 308 810 351 810 q 242 784 264 810 q 219 722 219 757 q 242 660 219 687 z "},"±":{"ha":790,"x_min":57,"x_max":802,"o":"m 538 777 l 802 777 l 802 570 l 538 570 l 538 306 l 321 306 l 321 570 l 57 570 l 57 777 l 321 777 l 321 1040 l 538 1040 l 538 777 m 57 0 l 57 219 l 732 219 l 732 0 l 57 0 z "},"´":{"ha":315,"x_min":0,"x_max":315,"o":"m 0 787 l 82 981 l 315 981 l 233 787 l 0 787 z "},"µ":{"ha":911,"x_min":46,"x_max":865,"o":"m 603 787 l 865 787 l 865 0 l 609 0 l 603 106 l 578 106 q 472 15 538 47 q 331 -18 405 -18 q 308 -16 315 -18 l 308 -174 l 46 -174 l 46 787 l 308 787 l 308 331 q 320 264 308 292 q 353 221 332 236 q 397 200 374 207 q 448 193 420 193 q 561 234 519 193 q 603 315 603 274 l 603 787 z "},"¶":{"ha":1369,"x_min":29,"x_max":1323,"o":"m 675 0 l 675 251 l 465 251 q 142 342 254 251 q 29 612 29 434 q 142 881 29 790 q 467 972 255 972 l 937 972 l 937 0 l 675 0 m 1061 0 l 1061 972 l 1323 972 l 1323 0 l 1061 0 z "},"·":{"ha":456,"x_min":94,"x_max":365,"o":"m 325 393 q 305 373 325 393 q 229 353 285 353 q 134 393 174 353 q 94 488 94 433 q 134 582 94 543 q 229 621 174 621 q 325 582 285 621 q 365 488 365 543 q 325 393 365 433 z "},"¸":{"ha":276,"x_min":0,"x_max":277,"o":"m 147 -43 q 239 -81 201 -48 q 277 -172 277 -113 q 254 -248 277 -216 q 192 -295 231 -279 q 104 -314 154 -310 q 0 -306 54 -318 l 0 -198 q 73 -204 45 -207 q 115 -194 102 -202 q 128 -176 128 -186 q 115 -154 128 -163 q 73 -142 102 -145 q 0 -152 45 -140 l 0 -79 l 96 0 l 200 0 l 147 -43 z "},"º":{"ha":608,"x_min":52,"x_max":555,"o":"m 304 473 q 126 547 199 473 q 52 726 52 621 q 126 905 52 831 q 304 979 199 979 q 482 905 409 979 q 555 726 555 831 q 482 547 555 621 q 304 473 409 473 m 304 629 q 374 656 346 629 q 401 726 401 684 q 373 795 401 767 q 304 824 345 824 q 235 796 263 824 q 207 726 207 768 q 235 656 207 683 q 304 629 262 629 z "},"»":{"ha":995,"x_min":69,"x_max":926,"o":"m 69 151 l 294 486 l 69 822 l 340 822 l 565 486 l 340 151 l 69 151 m 431 151 l 655 486 l 431 822 l 701 822 l 926 486 l 701 151 l 431 151 z "},"¿":{"ha":916,"x_min":54,"x_max":900,"o":"m 381 701 q 401 721 381 701 q 477 741 421 741 q 572 701 532 741 q 612 606 612 661 q 572 512 612 551 q 477 473 532 473 q 381 512 421 473 q 341 606 341 551 q 381 701 341 661 m 601 382 q 600 302 606 338 q 577 242 593 266 q 541 200 562 218 q 494 169 519 181 q 444 146 469 157 q 395 124 418 135 q 353 102 371 114 q 323 73 334 90 q 313 33 313 56 q 357 -40 313 -12 q 473 -67 401 -67 q 542 -60 511 -67 q 600 -35 573 -52 q 642 12 627 -18 q 657 85 657 43 l 894 85 q 790 -186 900 -96 q 475 -275 680 -275 q 167 -205 280 -275 q 54 6 54 -135 q 71 99 54 59 q 113 162 87 138 q 172 203 140 185 q 235 235 203 220 q 294 268 267 250 q 337 314 320 286 q 353 382 353 342 l 601 382 z "},"À":{"ha":1129,"x_min":12,"x_max":1118,"o":"m 683 1030 l 450 1030 l 368 1225 l 601 1225 l 683 1030 m 848 0 l 794 152 l 336 152 l 281 0 l 12 0 l 382 972 l 748 972 l 1118 0 l 848 0 m 405 347 l 724 347 l 589 727 l 542 727 l 405 347 z "},"Á":{"ha":1129,"x_min":12,"x_max":1118,"o":"m 763 1225 l 681 1030 l 448 1030 l 530 1225 l 763 1225 m 848 0 l 794 152 l 336 152 l 281 0 l 12 0 l 382 972 l 748 972 l 1118 0 l 848 0 m 405 347 l 724 347 l 589 727 l 542 727 l 405 347 z "},"Â":{"ha":1129,"x_min":12,"x_max":1118,"o":"m 534 1099 l 471 1030 l 249 1030 l 405 1225 l 724 1225 l 880 1030 l 657 1030 l 595 1099 l 534 1099 m 848 0 l 794 152 l 336 152 l 281 0 l 12 0 l 382 972 l 748 972 l 1118 0 l 848 0 m 405 347 l 724 347 l 589 727 l 542 727 l 405 347 z "},"Ã":{"ha":1129,"x_min":12,"x_max":1118,"o":"m 377 1046 l 298 1046 q 303 1128 292 1093 q 339 1185 315 1164 q 395 1217 364 1206 q 463 1228 427 1228 q 526 1217 494 1228 q 580 1191 558 1205 q 630 1166 602 1177 q 682 1154 657 1154 q 730 1169 712 1154 q 751 1209 749 1184 l 832 1209 q 793 1074 842 1120 q 667 1028 744 1028 q 603 1040 635 1028 q 549 1065 570 1051 q 499 1090 527 1079 q 447 1102 471 1102 q 399 1087 417 1102 q 377 1046 380 1072 m 848 0 l 794 152 l 336 152 l 281 0 l 12 0 l 382 972 l 748 972 l 1118 0 l 848 0 m 405 347 l 724 347 l 589 727 l 542 727 l 405 347 z "},"Ä":{"ha":1129,"x_min":12,"x_max":1118,"o":"m 401 1040 q 328 1068 358 1040 q 298 1138 298 1096 q 328 1208 298 1180 q 401 1236 358 1236 q 474 1208 444 1236 q 503 1138 503 1180 q 474 1068 503 1096 q 401 1040 444 1040 m 729 1040 q 656 1068 686 1040 q 626 1138 626 1096 q 656 1208 626 1180 q 729 1236 686 1236 q 802 1208 772 1236 q 832 1138 832 1180 q 802 1068 832 1096 q 729 1040 772 1040 m 848 0 l 794 152 l 336 152 l 281 0 l 12 0 l 382 972 l 748 972 l 1118 0 l 848 0 m 405 347 l 724 347 l 589 727 l 542 727 l 405 347 z "},"Å":{"ha":1129,"x_min":12,"x_max":1118,"o":"m 848 0 l 794 152 l 336 152 l 281 0 l 12 0 l 382 972 l 495 972 q 434 1028 456 992 q 411 1107 411 1065 q 456 1216 411 1171 q 565 1261 500 1261 q 673 1216 629 1261 q 716 1107 716 1171 q 694 1028 716 1065 q 634 972 671 992 l 748 972 l 1118 0 l 848 0 m 565 1147 q 536 1136 547 1147 q 526 1109 526 1126 q 536 1081 526 1091 q 565 1071 547 1071 q 593 1081 582 1071 q 603 1109 604 1091 q 592 1137 602 1127 q 565 1147 581 1147 m 405 347 l 724 347 l 589 727 l 542 727 l 405 347 z "},"Æ":{"ha":1570,"x_min":12,"x_max":1525,"o":"m 1525 760 l 948 760 l 948 578 l 1503 578 l 1503 396 l 948 396 l 948 212 l 1525 212 l 1525 0 l 686 0 l 686 154 l 349 154 l 275 0 l 12 0 l 471 972 l 1525 972 l 1525 760 m 441 347 l 686 347 l 686 755 l 634 755 l 441 347 z "},"Ç":{"ha":1085,"x_min":29,"x_max":1057,"o":"m 566 193 q 718 237 656 193 q 808 368 781 280 l 1057 368 q 1014 219 1045 286 q 940 107 983 152 q 842 32 898 62 q 728 -13 787 1 q 604 -31 669 -28 l 589 -43 q 681 -81 643 -48 q 719 -172 719 -113 q 696 -248 719 -216 q 634 -295 673 -279 q 546 -314 596 -310 q 442 -306 496 -318 l 442 -198 q 515 -204 487 -207 q 557 -194 544 -202 q 570 -176 570 -186 q 557 -154 570 -163 q 515 -142 544 -145 q 442 -152 487 -140 l 442 -79 l 503 -29 q 159 131 290 -9 q 29 486 29 272 q 97 756 29 638 q 287 939 164 874 q 566 1004 409 1004 q 699 992 636 1004 q 822 951 762 980 q 930 877 883 922 q 1010 763 977 832 q 1057 606 1044 694 l 808 606 q 718 736 781 694 q 566 779 656 779 q 368 697 447 779 q 288 486 288 615 q 368 275 288 357 q 566 193 447 193 z "},"È":{"ha":930,"x_min":46,"x_max":884,"o":"m 576 1030 l 344 1030 l 262 1225 l 494 1225 l 576 1030 m 46 0 l 46 972 l 884 972 l 884 760 l 308 760 l 308 578 l 863 578 l 863 396 l 308 396 l 308 212 l 884 212 l 884 0 l 46 0 z "},"É":{"ha":930,"x_min":46,"x_max":884,"o":"m 341 1030 l 424 1225 l 656 1225 l 574 1030 l 341 1030 m 46 0 l 46 972 l 884 972 l 884 760 l 308 760 l 308 578 l 863 578 l 863 396 l 308 396 l 308 212 l 884 212 l 884 0 l 46 0 z "},"Ê":{"ha":930,"x_min":46,"x_max":884,"o":"m 142 1030 l 298 1225 l 617 1225 l 773 1030 l 551 1030 l 488 1099 l 427 1099 l 365 1030 l 142 1030 m 46 0 l 46 972 l 884 972 l 884 760 l 308 760 l 308 578 l 863 578 l 863 396 l 308 396 l 308 212 l 884 212 l 884 0 l 46 0 z "},"Ë":{"ha":930,"x_min":46,"x_max":884,"o":"m 294 1040 q 221 1068 252 1040 q 191 1138 191 1096 q 221 1208 191 1180 q 294 1236 252 1236 q 367 1208 337 1236 q 397 1138 397 1180 q 367 1068 397 1096 q 294 1040 337 1040 m 623 1040 q 549 1068 579 1040 q 519 1138 519 1096 q 549 1208 519 1180 q 623 1236 579 1236 q 695 1208 665 1236 q 726 1138 726 1180 q 695 1068 726 1096 q 623 1040 665 1040 m 46 0 l 46 972 l 884 972 l 884 760 l 308 760 l 308 578 l 863 578 l 863 396 l 308 396 l 308 212 l 884 212 l 884 0 l 46 0 z "},"Ì":{"ha":354,"x_min":-20,"x_max":308,"o":"m 295 1030 l 62 1030 l -20 1225 l 213 1225 l 295 1030 m 46 0 l 46 972 l 308 972 l 308 0 l 46 0 z "},"Í":{"ha":354,"x_min":46,"x_max":375,"o":"m 60 1030 l 142 1225 l 375 1225 l 293 1030 l 60 1030 m 46 0 l 46 972 l 308 972 l 308 0 l 46 0 z "},"Î":{"ha":354,"x_min":-139,"x_max":492,"o":"m -139 1030 l 18 1225 l 336 1225 l 492 1030 l 270 1030 l 207 1099 l 146 1099 l 83 1030 l -139 1030 m 46 0 l 46 972 l 308 972 l 308 0 l 46 0 z "},"Ï":{"ha":354,"x_min":-90,"x_max":444,"o":"m 13 1040 q -60 1068 -30 1040 q -90 1138 -90 1096 q -60 1208 -90 1180 q 13 1236 -30 1236 q 86 1208 56 1236 q 116 1138 116 1180 q 86 1068 116 1096 q 13 1040 56 1040 m 341 1040 q 268 1068 298 1040 q 239 1138 239 1096 q 268 1208 239 1180 q 341 1236 298 1236 q 414 1208 384 1236 q 444 1138 444 1180 q 414 1068 444 1096 q 341 1040 384 1040 m 46 0 l 46 972 l 308 972 l 308 0 l 46 0 z "},"Ð":{"ha":1132,"x_min":6,"x_max":1097,"o":"m 572 972 q 773 948 684 972 q 923 882 863 924 q 1023 777 983 839 q 1080 644 1062 715 q 1097 486 1097 572 q 1080 329 1097 401 q 1023 196 1062 258 q 923 91 983 134 q 774 24 863 48 q 572 0 684 0 l 111 0 l 111 390 l 6 390 l 6 582 l 111 582 l 111 972 l 572 972 m 572 220 q 767 288 699 220 q 836 486 836 355 q 767 686 836 618 q 572 753 699 753 l 374 753 l 374 582 l 534 582 l 534 390 l 373 390 l 373 220 l 572 220 z "},"Ñ":{"ha":1081,"x_min":46,"x_max":1035,"o":"m 642 1028 q 578 1040 610 1028 q 524 1065 546 1051 q 475 1090 503 1079 q 422 1102 447 1102 q 375 1087 393 1102 q 353 1046 357 1072 l 273 1046 q 279 1128 267 1093 q 315 1185 290 1164 q 371 1217 340 1206 q 439 1228 402 1228 q 502 1217 470 1228 q 556 1191 534 1205 q 605 1166 578 1177 q 657 1154 633 1154 q 706 1169 688 1154 q 727 1209 724 1184 l 808 1209 q 769 1074 818 1120 q 642 1028 720 1028 m 46 0 l 46 972 l 349 972 l 757 361 l 780 361 l 780 972 l 1035 972 l 1035 0 l 740 0 l 326 611 l 301 611 l 301 0 l 46 0 z "},"Ò":{"ha":1137,"x_min":29,"x_max":1109,"o":"m 688 1035 l 455 1035 l 373 1229 l 606 1229 l 688 1035 m 570 -33 q 287 33 410 -33 q 96 216 163 98 q 29 486 29 334 q 96 756 29 639 q 287 939 163 874 q 570 1004 410 1004 q 960 861 811 1004 q 1109 486 1109 718 q 1042 216 1109 334 q 852 33 975 98 q 570 -33 729 -33 m 570 193 q 770 274 690 193 q 850 486 850 355 q 770 699 850 618 q 570 779 690 779 q 368 699 448 779 q 288 486 288 618 q 368 274 288 355 q 570 193 448 193 z "},"Ó":{"ha":1137,"x_min":29,"x_max":1109,"o":"m 452 1035 l 534 1229 l 768 1229 l 685 1035 l 452 1035 m 570 -33 q 287 33 410 -33 q 96 216 163 98 q 29 486 29 334 q 96 756 29 639 q 287 939 163 874 q 570 1004 410 1004 q 960 861 811 1004 q 1109 486 1109 718 q 1042 216 1109 334 q 852 33 975 98 q 570 -33 729 -33 m 570 193 q 770 274 690 193 q 850 486 850 355 q 770 699 850 618 q 570 779 690 779 q 368 699 448 779 q 288 486 288 618 q 368 274 288 355 q 570 193 448 193 z "},"Ô":{"ha":1137,"x_min":29,"x_max":1109,"o":"m 254 1035 l 410 1229 l 728 1229 l 884 1035 l 662 1035 l 600 1104 l 538 1104 l 475 1035 l 254 1035 m 570 -33 q 287 33 410 -33 q 96 216 163 98 q 29 486 29 334 q 96 756 29 639 q 287 939 163 874 q 570 1004 410 1004 q 960 861 811 1004 q 1109 486 1109 718 q 1042 216 1109 334 q 852 33 975 98 q 570 -33 729 -33 m 570 193 q 770 274 690 193 q 850 486 850 355 q 770 699 850 618 q 570 779 690 779 q 368 699 448 779 q 288 486 288 618 q 368 274 288 355 q 570 193 448 193 z "},"Õ":{"ha":1137,"x_min":29,"x_max":1109,"o":"m 671 1032 q 607 1044 640 1032 q 553 1069 575 1055 q 504 1095 532 1084 q 452 1107 476 1107 q 404 1092 422 1107 q 382 1051 385 1077 l 302 1051 q 307 1133 296 1097 q 343 1190 319 1169 q 399 1222 368 1211 q 467 1233 431 1233 q 546 1214 507 1233 q 621 1177 585 1196 q 686 1158 656 1158 q 735 1173 717 1158 q 755 1214 753 1188 l 837 1214 q 798 1078 847 1124 q 671 1032 749 1032 m 570 -33 q 287 33 410 -33 q 96 216 163 98 q 29 486 29 334 q 96 756 29 639 q 287 939 163 874 q 570 1004 410 1004 q 960 861 811 1004 q 1109 486 1109 718 q 1042 216 1109 334 q 852 33 975 98 q 570 -33 729 -33 m 570 193 q 770 274 690 193 q 850 486 850 355 q 770 699 850 618 q 570 779 690 779 q 368 699 448 779 q 288 486 288 618 q 368 274 288 355 q 570 193 448 193 z "},"Ö":{"ha":1137,"x_min":29,"x_max":1109,"o":"m 405 1044 q 332 1072 362 1044 q 302 1142 302 1100 q 332 1213 302 1184 q 405 1241 363 1241 q 478 1213 448 1241 q 508 1142 508 1184 q 478 1072 508 1100 q 405 1044 448 1044 m 734 1044 q 661 1072 690 1044 q 631 1142 631 1100 q 661 1213 631 1184 q 734 1241 690 1241 q 806 1213 776 1241 q 837 1142 837 1184 q 807 1072 837 1100 q 734 1044 777 1044 m 570 -33 q 287 33 410 -33 q 96 216 163 98 q 29 486 29 334 q 96 756 29 639 q 287 939 163 874 q 570 1004 410 1004 q 960 861 811 1004 q 1109 486 1109 718 q 1042 216 1109 334 q 852 33 975 98 q 570 -33 729 -33 m 570 193 q 770 274 690 193 q 850 486 850 355 q 770 699 850 618 q 570 779 690 779 q 368 699 448 779 q 288 486 288 618 q 368 274 288 355 q 570 193 448 193 z "},"×":{"ha":789,"x_min":57,"x_max":730,"o":"m 730 644 l 544 457 l 730 271 l 585 124 l 398 311 l 211 124 l 57 278 l 244 465 l 57 652 l 203 798 l 390 611 l 576 798 l 730 644 z "},"Ø":{"ha":1137,"x_min":29,"x_max":1109,"o":"m 855 937 q 1042 755 975 873 q 1109 486 1109 637 q 1042 216 1109 334 q 852 33 975 98 q 570 -33 729 -33 q 416 -15 489 -33 l 396 -59 l 231 -59 l 275 39 q 94 221 159 105 q 29 486 29 338 q 96 756 29 639 q 287 939 163 874 q 570 1004 410 1004 q 714 989 643 1004 l 734 1032 l 899 1032 l 855 937 m 288 486 q 380 264 288 346 l 616 775 q 570 779 586 779 q 368 699 448 779 q 288 486 288 618 m 570 193 q 770 274 690 193 q 850 486 850 355 q 752 715 850 633 l 514 198 q 570 193 540 193 z "},"Ù":{"ha":1053,"x_min":46,"x_max":1007,"o":"m 645 1030 l 412 1030 l 330 1225 l 562 1225 l 645 1030 m 527 -33 q 168 77 290 -33 q 46 411 46 187 l 46 972 l 309 972 l 309 418 q 364 247 309 307 q 527 187 418 187 q 691 248 636 187 q 747 418 747 308 l 747 972 l 1007 972 l 1007 412 q 527 -33 1007 -33 z "},"Ú":{"ha":1053,"x_min":46,"x_max":1007,"o":"m 410 1030 l 492 1225 l 724 1225 l 642 1030 l 410 1030 m 527 -33 q 168 77 290 -33 q 46 411 46 187 l 46 972 l 309 972 l 309 418 q 364 247 309 307 q 527 187 418 187 q 691 248 636 187 q 747 418 747 308 l 747 972 l 1007 972 l 1007 412 q 527 -33 1007 -33 z "},"Û":{"ha":1053,"x_min":46,"x_max":1007,"o":"m 211 1030 l 367 1225 l 685 1225 l 842 1030 l 619 1030 l 557 1099 l 495 1099 l 433 1030 l 211 1030 m 527 -33 q 168 77 290 -33 q 46 411 46 187 l 46 972 l 309 972 l 309 418 q 364 247 309 307 q 527 187 418 187 q 691 248 636 187 q 747 418 747 308 l 747 972 l 1007 972 l 1007 412 q 527 -33 1007 -33 z "},"Ü":{"ha":1053,"x_min":46,"x_max":1007,"o":"m 362 1040 q 289 1068 319 1040 q 259 1138 259 1096 q 289 1208 259 1180 q 362 1236 319 1236 q 435 1208 406 1236 q 465 1138 465 1180 q 435 1068 465 1096 q 362 1040 406 1040 m 691 1040 q 618 1068 648 1040 q 588 1138 588 1096 q 618 1208 588 1180 q 691 1236 648 1236 q 764 1208 734 1236 q 794 1138 794 1180 q 764 1068 794 1096 q 691 1040 734 1040 m 527 -33 q 168 77 290 -33 q 46 411 46 187 l 46 972 l 309 972 l 309 418 q 364 247 309 307 q 527 187 418 187 q 691 248 636 187 q 747 418 747 308 l 747 972 l 1007 972 l 1007 412 q 527 -33 1007 -33 z "},"Ý":{"ha":1073,"x_min":6,"x_max":1067,"o":"m 735 1225 l 653 1030 l 420 1030 l 503 1225 l 735 1225 m 1067 972 l 667 308 l 667 0 l 406 0 l 406 309 l 6 972 l 282 972 l 524 560 l 549 560 l 791 972 l 1067 972 z "},"Þ":{"ha":988,"x_min":46,"x_max":954,"o":"m 516 847 q 841 756 728 847 q 954 486 954 665 q 841 217 954 309 q 517 126 728 126 l 308 126 l 308 0 l 46 0 l 46 972 l 308 972 l 308 847 l 516 847 m 523 344 q 647 379 602 344 q 692 486 692 415 q 647 593 692 557 q 523 629 602 629 l 308 629 l 308 344 l 523 344 z "},"ß":{"ha":1003,"x_min":46,"x_max":968,"o":"m 46 0 l 46 665 q 79 819 46 753 q 172 923 112 884 q 309 979 232 961 q 480 998 385 998 q 647 982 573 998 q 768 940 721 966 q 846 878 815 914 q 890 804 877 842 q 903 724 903 766 q 869 607 903 654 q 783 536 836 561 l 783 519 q 920 429 871 489 q 968 278 968 369 q 946 169 968 218 q 876 81 923 120 q 747 21 828 43 q 555 0 665 0 l 385 0 l 385 199 l 552 199 q 670 231 631 199 q 709 316 709 262 q 670 399 709 368 q 552 431 630 431 l 385 431 l 385 578 l 519 578 q 624 602 589 578 q 659 669 659 627 q 617 747 659 718 q 494 775 576 775 q 358 746 409 775 q 308 653 308 716 l 308 0 l 46 0 z "},"à":{"ha":1129,"x_min":12,"x_max":1118,"o":"m 683 1030 l 450 1030 l 368 1225 l 601 1225 l 683 1030 m 848 0 l 794 152 l 336 152 l 281 0 l 12 0 l 382 972 l 748 972 l 1118 0 l 848 0 m 405 347 l 724 347 l 589 727 l 542 727 l 405 347 z "},"á":{"ha":1129,"x_min":12,"x_max":1118,"o":"m 763 1225 l 681 1030 l 448 1030 l 530 1225 l 763 1225 m 848 0 l 794 152 l 336 152 l 281 0 l 12 0 l 382 972 l 748 972 l 1118 0 l 848 0 m 405 347 l 724 347 l 589 727 l 542 727 l 405 347 z "},"â":{"ha":1129,"x_min":12,"x_max":1118,"o":"m 534 1099 l 471 1030 l 249 1030 l 405 1225 l 724 1225 l 880 1030 l 657 1030 l 595 1099 l 534 1099 m 848 0 l 794 152 l 336 152 l 281 0 l 12 0 l 382 972 l 748 972 l 1118 0 l 848 0 m 405 347 l 724 347 l 589 727 l 542 727 l 405 347 z "},"ã":{"ha":1129,"x_min":12,"x_max":1118,"o":"m 377 1046 l 298 1046 q 303 1128 292 1093 q 339 1185 315 1164 q 395 1217 364 1206 q 463 1228 427 1228 q 526 1217 494 1228 q 580 1191 558 1205 q 630 1166 602 1177 q 682 1154 657 1154 q 730 1169 712 1154 q 751 1209 749 1184 l 832 1209 q 793 1074 842 1120 q 667 1028 744 1028 q 603 1040 635 1028 q 549 1065 570 1051 q 499 1090 527 1079 q 447 1102 471 1102 q 399 1087 417 1102 q 377 1046 380 1072 m 848 0 l 794 152 l 336 152 l 281 0 l 12 0 l 382 972 l 748 972 l 1118 0 l 848 0 m 405 347 l 724 347 l 589 727 l 542 727 l 405 347 z "},"ä":{"ha":1129,"x_min":12,"x_max":1118,"o":"m 401 1040 q 328 1068 358 1040 q 298 1138 298 1096 q 328 1208 298 1180 q 401 1236 358 1236 q 474 1208 444 1236 q 503 1138 503 1180 q 474 1068 503 1096 q 401 1040 444 1040 m 729 1040 q 656 1068 686 1040 q 626 1138 626 1096 q 656 1208 626 1180 q 729 1236 686 1236 q 802 1208 772 1236 q 832 1138 832 1180 q 802 1068 832 1096 q 729 1040 772 1040 m 848 0 l 794 152 l 336 152 l 281 0 l 12 0 l 382 972 l 748 972 l 1118 0 l 848 0 m 405 347 l 724 347 l 589 727 l 542 727 l 405 347 z "},"å":{"ha":1129,"x_min":12,"x_max":1118,"o":"m 848 0 l 794 152 l 336 152 l 281 0 l 12 0 l 382 972 l 495 972 q 434 1028 456 992 q 411 1107 411 1065 q 456 1216 411 1171 q 565 1261 500 1261 q 673 1216 629 1261 q 716 1107 716 1171 q 694 1028 716 1065 q 634 972 671 992 l 748 972 l 1118 0 l 848 0 m 565 1147 q 536 1136 547 1147 q 526 1109 526 1126 q 536 1081 526 1091 q 565 1071 547 1071 q 593 1081 582 1071 q 603 1109 604 1091 q 592 1137 602 1127 q 565 1147 581 1147 m 405 347 l 724 347 l 589 727 l 542 727 l 405 347 z "},"æ":{"ha":1570,"x_min":12,"x_max":1525,"o":"m 1525 760 l 948 760 l 948 578 l 1503 578 l 1503 396 l 948 396 l 948 212 l 1525 212 l 1525 0 l 686 0 l 686 154 l 349 154 l 275 0 l 12 0 l 471 972 l 1525 972 l 1525 760 m 441 347 l 686 347 l 686 755 l 634 755 l 441 347 z "},"ç":{"ha":1085,"x_min":29,"x_max":1057,"o":"m 566 193 q 718 237 656 193 q 808 368 781 280 l 1057 368 q 1014 219 1045 286 q 940 107 983 152 q 842 32 898 62 q 728 -13 787 1 q 604 -31 669 -28 l 589 -43 q 681 -81 643 -48 q 719 -172 719 -113 q 696 -248 719 -216 q 634 -295 673 -279 q 546 -314 596 -310 q 442 -306 496 -318 l 442 -198 q 515 -204 487 -207 q 557 -194 544 -202 q 570 -176 570 -186 q 557 -154 570 -163 q 515 -142 544 -145 q 442 -152 487 -140 l 442 -79 l 503 -29 q 159 131 290 -9 q 29 486 29 272 q 97 756 29 638 q 287 939 164 874 q 566 1004 409 1004 q 699 992 636 1004 q 822 951 762 980 q 930 877 883 922 q 1010 763 977 832 q 1057 606 1044 694 l 808 606 q 718 736 781 694 q 566 779 656 779 q 368 697 447 779 q 288 486 288 615 q 368 275 288 357 q 566 193 447 193 z "},"è":{"ha":930,"x_min":46,"x_max":884,"o":"m 576 1030 l 344 1030 l 262 1225 l 494 1225 l 576 1030 m 46 0 l 46 972 l 884 972 l 884 760 l 308 760 l 308 578 l 863 578 l 863 396 l 308 396 l 308 212 l 884 212 l 884 0 l 46 0 z "},"é":{"ha":930,"x_min":46,"x_max":884,"o":"m 341 1030 l 424 1225 l 656 1225 l 574 1030 l 341 1030 m 46 0 l 46 972 l 884 972 l 884 760 l 308 760 l 308 578 l 863 578 l 863 396 l 308 396 l 308 212 l 884 212 l 884 0 l 46 0 z "},"ê":{"ha":930,"x_min":46,"x_max":884,"o":"m 142 1030 l 298 1225 l 617 1225 l 773 1030 l 551 1030 l 488 1099 l 427 1099 l 365 1030 l 142 1030 m 46 0 l 46 972 l 884 972 l 884 760 l 308 760 l 308 578 l 863 578 l 863 396 l 308 396 l 308 212 l 884 212 l 884 0 l 46 0 z "},"ë":{"ha":930,"x_min":46,"x_max":884,"o":"m 294 1040 q 221 1068 252 1040 q 191 1138 191 1096 q 221 1208 191 1180 q 294 1236 252 1236 q 367 1208 337 1236 q 397 1138 397 1180 q 367 1068 397 1096 q 294 1040 337 1040 m 623 1040 q 549 1068 579 1040 q 519 1138 519 1096 q 549 1208 519 1180 q 623 1236 579 1236 q 695 1208 665 1236 q 726 1138 726 1180 q 695 1068 726 1096 q 623 1040 665 1040 m 46 0 l 46 972 l 884 972 l 884 760 l 308 760 l 308 578 l 863 578 l 863 396 l 308 396 l 308 212 l 884 212 l 884 0 l 46 0 z "},"ì":{"ha":354,"x_min":-20,"x_max":308,"o":"m 295 1030 l 62 1030 l -20 1225 l 213 1225 l 295 1030 m 46 0 l 46 972 l 308 972 l 308 0 l 46 0 z "},"í":{"ha":354,"x_min":46,"x_max":375,"o":"m 60 1030 l 142 1225 l 375 1225 l 293 1030 l 60 1030 m 46 0 l 46 972 l 308 972 l 308 0 l 46 0 z "},"î":{"ha":354,"x_min":-139,"x_max":492,"o":"m -139 1030 l 18 1225 l 336 1225 l 492 1030 l 270 1030 l 207 1099 l 146 1099 l 83 1030 l -139 1030 m 46 0 l 46 972 l 308 972 l 308 0 l 46 0 z "},"ï":{"ha":354,"x_min":-90,"x_max":444,"o":"m 13 1040 q -60 1068 -30 1040 q -90 1138 -90 1096 q -60 1208 -90 1180 q 13 1236 -30 1236 q 86 1208 56 1236 q 116 1138 116 1180 q 86 1068 116 1096 q 13 1040 56 1040 m 341 1040 q 268 1068 298 1040 q 239 1138 239 1096 q 268 1208 239 1180 q 341 1236 298 1236 q 414 1208 384 1236 q 444 1138 444 1180 q 414 1068 444 1096 q 341 1040 384 1040 m 46 0 l 46 972 l 308 972 l 308 0 l 46 0 z "},"ð":{"ha":1132,"x_min":6,"x_max":1097,"o":"m 572 972 q 773 948 684 972 q 923 882 863 924 q 1023 777 983 839 q 1080 644 1062 715 q 1097 486 1097 572 q 1080 329 1097 401 q 1023 196 1062 258 q 923 91 983 134 q 774 24 863 48 q 572 0 684 0 l 111 0 l 111 390 l 6 390 l 6 582 l 111 582 l 111 972 l 572 972 m 572 220 q 767 288 699 220 q 836 486 836 355 q 767 686 836 618 q 572 753 699 753 l 374 753 l 374 582 l 534 582 l 534 390 l 373 390 l 373 220 l 572 220 z "},"ñ":{"ha":1081,"x_min":46,"x_max":1035,"o":"m 642 1028 q 578 1040 610 1028 q 524 1065 546 1051 q 475 1090 503 1079 q 422 1102 447 1102 q 375 1087 393 1102 q 353 1046 357 1072 l 273 1046 q 279 1128 267 1093 q 315 1185 290 1164 q 371 1217 340 1206 q 439 1228 402 1228 q 502 1217 470 1228 q 556 1191 534 1205 q 605 1166 578 1177 q 657 1154 633 1154 q 706 1169 688 1154 q 727 1209 724 1184 l 808 1209 q 769 1074 818 1120 q 642 1028 720 1028 m 46 0 l 46 972 l 349 972 l 757 361 l 780 361 l 780 972 l 1035 972 l 1035 0 l 740 0 l 326 611 l 301 611 l 301 0 l 46 0 z "},"ò":{"ha":1137,"x_min":29,"x_max":1109,"o":"m 688 1035 l 455 1035 l 373 1229 l 606 1229 l 688 1035 m 570 -33 q 287 33 410 -33 q 96 216 163 98 q 29 486 29 334 q 96 756 29 639 q 287 939 163 874 q 570 1004 410 1004 q 960 861 811 1004 q 1109 486 1109 718 q 1042 216 1109 334 q 852 33 975 98 q 570 -33 729 -33 m 570 193 q 770 274 690 193 q 850 486 850 355 q 770 699 850 618 q 570 779 690 779 q 368 699 448 779 q 288 486 288 618 q 368 274 288 355 q 570 193 448 193 z "},"ó":{"ha":1137,"x_min":29,"x_max":1109,"o":"m 452 1035 l 534 1229 l 768 1229 l 685 1035 l 452 1035 m 570 -33 q 287 33 410 -33 q 96 216 163 98 q 29 486 29 334 q 96 756 29 639 q 287 939 163 874 q 570 1004 410 1004 q 960 861 811 1004 q 1109 486 1109 718 q 1042 216 1109 334 q 852 33 975 98 q 570 -33 729 -33 m 570 193 q 770 274 690 193 q 850 486 850 355 q 770 699 850 618 q 570 779 690 779 q 368 699 448 779 q 288 486 288 618 q 368 274 288 355 q 570 193 448 193 z "},"ô":{"ha":1137,"x_min":29,"x_max":1109,"o":"m 254 1035 l 410 1229 l 728 1229 l 884 1035 l 662 1035 l 600 1104 l 538 1104 l 475 1035 l 254 1035 m 570 -33 q 287 33 410 -33 q 96 216 163 98 q 29 486 29 334 q 96 756 29 639 q 287 939 163 874 q 570 1004 410 1004 q 960 861 811 1004 q 1109 486 1109 718 q 1042 216 1109 334 q 852 33 975 98 q 570 -33 729 -33 m 570 193 q 770 274 690 193 q 850 486 850 355 q 770 699 850 618 q 570 779 690 779 q 368 699 448 779 q 288 486 288 618 q 368 274 288 355 q 570 193 448 193 z "},"õ":{"ha":1137,"x_min":29,"x_max":1109,"o":"m 671 1032 q 607 1044 640 1032 q 553 1069 575 1055 q 504 1095 532 1084 q 452 1107 476 1107 q 404 1092 422 1107 q 382 1051 385 1077 l 302 1051 q 307 1133 296 1097 q 343 1190 319 1169 q 399 1222 368 1211 q 467 1233 431 1233 q 546 1214 507 1233 q 621 1177 585 1196 q 686 1158 656 1158 q 735 1173 717 1158 q 755 1214 753 1188 l 837 1214 q 798 1078 847 1124 q 671 1032 749 1032 m 570 -33 q 287 33 410 -33 q 96 216 163 98 q 29 486 29 334 q 96 756 29 639 q 287 939 163 874 q 570 1004 410 1004 q 960 861 811 1004 q 1109 486 1109 718 q 1042 216 1109 334 q 852 33 975 98 q 570 -33 729 -33 m 570 193 q 770 274 690 193 q 850 486 850 355 q 770 699 850 618 q 570 779 690 779 q 368 699 448 779 q 288 486 288 618 q 368 274 288 355 q 570 193 448 193 z "},"ö":{"ha":1137,"x_min":29,"x_max":1109,"o":"m 405 1044 q 332 1072 362 1044 q 302 1142 302 1100 q 332 1213 302 1184 q 405 1241 363 1241 q 478 1213 448 1241 q 508 1142 508 1184 q 478 1072 508 1100 q 405 1044 448 1044 m 734 1044 q 661 1072 690 1044 q 631 1142 631 1100 q 661 1213 631 1184 q 734 1241 690 1241 q 806 1213 776 1241 q 837 1142 837 1184 q 807 1072 837 1100 q 734 1044 777 1044 m 570 -33 q 287 33 410 -33 q 96 216 163 98 q 29 486 29 334 q 96 756 29 639 q 287 939 163 874 q 570 1004 410 1004 q 960 861 811 1004 q 1109 486 1109 718 q 1042 216 1109 334 q 852 33 975 98 q 570 -33 729 -33 m 570 193 q 770 274 690 193 q 850 486 850 355 q 770 699 850 618 q 570 779 690 779 q 368 699 448 779 q 288 486 288 618 q 368 274 288 355 q 570 193 448 193 z "},"÷":{"ha":791,"x_min":58,"x_max":734,"o":"m 396 661 q 312 696 347 661 q 277 779 277 731 q 312 863 277 828 q 396 897 347 897 q 481 863 446 897 q 516 779 516 828 q 481 696 516 731 q 396 661 446 661 m 58 395 l 58 578 l 734 578 l 734 395 l 58 395 m 396 74 q 312 109 347 74 q 277 192 277 144 q 312 275 277 241 q 396 310 347 310 q 481 275 446 310 q 516 192 516 241 q 481 109 516 144 q 396 74 446 74 z "},"ø":{"ha":1137,"x_min":29,"x_max":1109,"o":"m 855 937 q 1042 755 975 873 q 1109 486 1109 637 q 1042 216 1109 334 q 852 33 975 98 q 570 -33 729 -33 q 416 -15 489 -33 l 396 -59 l 231 -59 l 275 39 q 94 221 159 105 q 29 486 29 338 q 96 756 29 639 q 287 939 163 874 q 570 1004 410 1004 q 714 989 643 1004 l 734 1032 l 899 1032 l 855 937 m 288 486 q 380 264 288 346 l 616 775 q 570 779 586 779 q 368 699 448 779 q 288 486 288 618 m 570 193 q 770 274 690 193 q 850 486 850 355 q 752 715 850 633 l 514 198 q 570 193 540 193 z "},"ù":{"ha":1053,"x_min":46,"x_max":1007,"o":"m 645 1030 l 412 1030 l 330 1225 l 562 1225 l 645 1030 m 527 -33 q 168 77 290 -33 q 46 411 46 187 l 46 972 l 309 972 l 309 418 q 364 247 309 307 q 527 187 418 187 q 691 248 636 187 q 747 418 747 308 l 747 972 l 1007 972 l 1007 412 q 527 -33 1007 -33 z "},"ú":{"ha":1053,"x_min":46,"x_max":1007,"o":"m 410 1030 l 492 1225 l 724 1225 l 642 1030 l 410 1030 m 527 -33 q 168 77 290 -33 q 46 411 46 187 l 46 972 l 309 972 l 309 418 q 364 247 309 307 q 527 187 418 187 q 691 248 636 187 q 747 418 747 308 l 747 972 l 1007 972 l 1007 412 q 527 -33 1007 -33 z "},"û":{"ha":1053,"x_min":46,"x_max":1007,"o":"m 211 1030 l 367 1225 l 685 1225 l 842 1030 l 619 1030 l 557 1099 l 495 1099 l 433 1030 l 211 1030 m 527 -33 q 168 77 290 -33 q 46 411 46 187 l 46 972 l 309 972 l 309 418 q 364 247 309 307 q 527 187 418 187 q 691 248 636 187 q 747 418 747 308 l 747 972 l 1007 972 l 1007 412 q 527 -33 1007 -33 z "},"ü":{"ha":1053,"x_min":46,"x_max":1007,"o":"m 362 1040 q 289 1068 319 1040 q 259 1138 259 1096 q 289 1208 259 1180 q 362 1236 319 1236 q 435 1208 406 1236 q 465 1138 465 1180 q 435 1068 465 1096 q 362 1040 406 1040 m 691 1040 q 618 1068 648 1040 q 588 1138 588 1096 q 618 1208 588 1180 q 691 1236 648 1236 q 764 1208 734 1236 q 794 1138 794 1180 q 764 1068 794 1096 q 691 1040 734 1040 m 527 -33 q 168 77 290 -33 q 46 411 46 187 l 46 972 l 309 972 l 309 418 q 364 247 309 307 q 527 187 418 187 q 691 248 636 187 q 747 418 747 308 l 747 972 l 1007 972 l 1007 412 q 527 -33 1007 -33 z "},"ý":{"ha":1073,"x_min":6,"x_max":1067,"o":"m 735 1225 l 653 1030 l 420 1030 l 503 1225 l 735 1225 m 1067 972 l 667 308 l 667 0 l 406 0 l 406 309 l 6 972 l 282 972 l 524 560 l 549 560 l 791 972 l 1067 972 z "},"þ":{"ha":988,"x_min":46,"x_max":954,"o":"m 516 847 q 841 756 728 847 q 954 486 954 665 q 841 217 954 309 q 517 126 728 126 l 308 126 l 308 0 l 46 0 l 46 972 l 308 972 l 308 847 l 516 847 m 523 344 q 647 379 602 344 q 692 486 692 415 q 647 593 692 557 q 523 629 602 629 l 308 629 l 308 344 l 523 344 z "},"ÿ":{"ha":1073,"x_min":6,"x_max":1067,"o":"m 373 1040 q 300 1068 330 1040 q 270 1138 270 1096 q 300 1208 270 1180 q 373 1236 330 1236 q 446 1208 416 1236 q 475 1138 475 1180 q 446 1068 475 1096 q 373 1040 416 1040 m 701 1040 q 628 1068 658 1040 q 598 1138 598 1096 q 628 1208 598 1180 q 701 1236 658 1236 q 774 1208 744 1236 q 804 1138 804 1180 q 774 1068 804 1096 q 701 1040 744 1040 m 1067 972 l 667 308 l 667 0 l 406 0 l 406 309 l 6 972 l 282 972 l 524 560 l 549 560 l 791 972 l 1067 972 z "},"Ā":{"ha":1129,"x_min":12,"x_max":1118,"o":"m 808 1227 l 808 1035 l 321 1035 l 321 1227 l 808 1227 m 848 0 l 794 152 l 336 152 l 281 0 l 12 0 l 382 972 l 748 972 l 1118 0 l 848 0 m 405 347 l 724 347 l 589 727 l 542 727 l 405 347 z "},"ā":{"ha":1129,"x_min":12,"x_max":1118,"o":"m 808 1227 l 808 1035 l 321 1035 l 321 1227 l 808 1227 m 848 0 l 794 152 l 336 152 l 281 0 l 12 0 l 382 972 l 748 972 l 1118 0 l 848 0 m 405 347 l 724 347 l 589 727 l 542 727 l 405 347 z "},"Ă":{"ha":1129,"x_min":12,"x_max":1118,"o":"m 565 1030 q 372 1075 430 1030 q 316 1225 315 1120 l 478 1225 q 501 1166 478 1187 q 565 1145 524 1145 q 629 1166 606 1145 q 652 1225 652 1187 l 814 1225 q 758 1075 815 1120 q 565 1030 701 1030 m 848 0 l 794 152 l 336 152 l 281 0 l 12 0 l 382 972 l 748 972 l 1118 0 l 848 0 m 405 347 l 724 347 l 589 727 l 542 727 l 405 347 z "},"ă":{"ha":1129,"x_min":12,"x_max":1118,"o":"m 565 1030 q 372 1075 430 1030 q 316 1225 315 1120 l 478 1225 q 501 1166 478 1187 q 565 1145 524 1145 q 629 1166 606 1145 q 652 1225 652 1187 l 814 1225 q 758 1075 815 1120 q 565 1030 701 1030 m 848 0 l 794 152 l 336 152 l 281 0 l 12 0 l 382 972 l 748 972 l 1118 0 l 848 0 m 405 347 l 724 347 l 589 727 l 542 727 l 405 347 z "},"Ą":{"ha":1129,"x_min":12,"x_max":1118,"o":"m 848 0 q 770 -22 794 0 q 745 -73 745 -44 q 762 -116 745 -98 q 821 -133 779 -134 l 821 -280 q 756 -276 788 -280 q 689 -259 724 -271 q 628 -229 654 -248 q 585 -179 602 -211 q 568 -108 568 -148 q 586 -34 568 -66 q 630 17 604 -1 q 693 48 656 36 q 760 66 730 61 q 823 72 790 71 l 794 152 l 336 152 l 281 0 l 12 0 l 382 972 l 748 972 l 1118 0 l 848 0 m 405 347 l 724 347 l 589 727 l 542 727 l 405 347 z "},"ą":{"ha":1129,"x_min":12,"x_max":1118,"o":"m 848 0 q 770 -22 794 0 q 745 -73 745 -44 q 762 -116 745 -98 q 821 -133 779 -134 l 821 -280 q 756 -276 788 -280 q 689 -259 724 -271 q 628 -229 654 -248 q 585 -179 602 -211 q 568 -108 568 -148 q 586 -34 568 -66 q 630 17 604 -1 q 693 48 656 36 q 760 66 730 61 q 823 72 790 71 l 794 152 l 336 152 l 281 0 l 12 0 l 382 972 l 748 972 l 1118 0 l 848 0 m 405 347 l 724 347 l 589 727 l 542 727 l 405 347 z "},"Ć":{"ha":1085,"x_min":29,"x_max":1057,"o":"m 452 1030 l 534 1225 l 766 1225 l 684 1030 l 452 1030 m 566 -33 q 348 6 448 -33 q 178 112 248 44 q 68 276 108 180 q 29 486 29 373 q 97 756 29 638 q 287 939 164 874 q 566 1004 409 1004 q 699 992 636 1004 q 822 951 762 980 q 930 877 883 922 q 1010 763 977 832 q 1057 606 1044 694 l 808 606 q 718 736 781 694 q 566 779 656 779 q 368 697 447 779 q 288 486 288 615 q 368 275 288 357 q 566 193 447 193 q 718 237 656 193 q 808 368 781 280 l 1057 368 q 1010 211 1044 281 q 930 97 977 142 q 823 22 884 52 q 699 -20 762 -7 q 566 -33 636 -33 z "},"ć":{"ha":1085,"x_min":29,"x_max":1057,"o":"m 452 1030 l 534 1225 l 766 1225 l 684 1030 l 452 1030 m 566 -33 q 348 6 448 -33 q 178 112 248 44 q 68 276 108 180 q 29 486 29 373 q 97 756 29 638 q 287 939 164 874 q 566 1004 409 1004 q 699 992 636 1004 q 822 951 762 980 q 930 877 883 922 q 1010 763 977 832 q 1057 606 1044 694 l 808 606 q 718 736 781 694 q 566 779 656 779 q 368 697 447 779 q 288 486 288 615 q 368 275 288 357 q 566 193 447 193 q 718 237 656 193 q 808 368 781 280 l 1057 368 q 1010 211 1044 281 q 930 97 977 142 q 823 22 884 52 q 699 -20 762 -7 q 566 -33 636 -33 z "},"Ċ":{"ha":1085,"x_min":29,"x_max":1057,"o":"m 568 1040 q 495 1068 526 1040 q 465 1138 465 1096 q 495 1208 465 1180 q 568 1236 526 1236 q 642 1208 612 1236 q 671 1138 671 1180 q 642 1068 671 1096 q 568 1040 612 1040 m 566 -33 q 348 6 448 -33 q 178 112 248 44 q 68 276 108 180 q 29 486 29 373 q 97 756 29 638 q 287 939 164 874 q 566 1004 409 1004 q 699 992 636 1004 q 822 951 762 980 q 930 877 883 922 q 1010 763 977 832 q 1057 606 1044 694 l 808 606 q 718 736 781 694 q 566 779 656 779 q 368 697 447 779 q 288 486 288 615 q 368 275 288 357 q 566 193 447 193 q 718 237 656 193 q 808 368 781 280 l 1057 368 q 1010 211 1044 281 q 930 97 977 142 q 823 22 884 52 q 699 -20 762 -7 q 566 -33 636 -33 z "},"ċ":{"ha":1085,"x_min":29,"x_max":1057,"o":"m 568 1040 q 495 1068 526 1040 q 465 1138 465 1096 q 495 1208 465 1180 q 568 1236 526 1236 q 642 1208 612 1236 q 671 1138 671 1180 q 642 1068 671 1096 q 568 1040 612 1040 m 566 -33 q 348 6 448 -33 q 178 112 248 44 q 68 276 108 180 q 29 486 29 373 q 97 756 29 638 q 287 939 164 874 q 566 1004 409 1004 q 699 992 636 1004 q 822 951 762 980 q 930 877 883 922 q 1010 763 977 832 q 1057 606 1044 694 l 808 606 q 718 736 781 694 q 566 779 656 779 q 368 697 447 779 q 288 486 288 615 q 368 275 288 357 q 566 193 447 193 q 718 237 656 193 q 808 368 781 280 l 1057 368 q 1010 211 1044 281 q 930 97 977 142 q 823 22 884 52 q 699 -20 762 -7 q 566 -33 636 -33 z "},"Č":{"ha":1085,"x_min":29,"x_max":1057,"o":"m 566 193 q 718 237 656 193 q 808 368 781 280 l 1057 368 q 1010 211 1044 281 q 930 97 977 142 q 823 22 884 52 q 699 -20 762 -7 q 566 -33 636 -33 q 348 6 448 -33 q 178 112 248 44 q 68 276 108 180 q 29 486 29 373 q 166 848 29 707 q 526 1004 302 990 l 410 1004 l 254 1198 l 475 1198 l 538 1128 l 600 1128 l 662 1198 l 884 1198 l 728 1004 l 608 1004 q 731 985 673 1000 q 844 940 789 970 q 941 865 899 909 q 1014 754 983 821 q 1057 606 1045 688 l 808 606 q 718 736 781 694 q 566 779 656 779 q 368 697 447 779 q 288 486 288 615 q 368 275 288 357 q 566 193 447 193 z "},"č":{"ha":1085,"x_min":29,"x_max":1057,"o":"m 566 193 q 718 237 656 193 q 808 368 781 280 l 1057 368 q 1010 211 1044 281 q 930 97 977 142 q 823 22 884 52 q 699 -20 762 -7 q 566 -33 636 -33 q 348 6 448 -33 q 178 112 248 44 q 68 276 108 180 q 29 486 29 373 q 166 848 29 707 q 526 1004 302 990 l 410 1004 l 254 1198 l 475 1198 l 538 1128 l 600 1128 l 662 1198 l 884 1198 l 728 1004 l 608 1004 q 731 985 673 1000 q 844 940 789 970 q 941 865 899 909 q 1014 754 983 821 q 1057 606 1045 688 l 808 606 q 718 736 781 694 q 566 779 656 779 q 368 697 447 779 q 288 486 288 615 q 368 275 288 357 q 566 193 447 193 z "},"Ď":{"ha":1067,"x_min":46,"x_max":1032,"o":"m 677 1004 l 359 1004 l 203 1198 l 425 1198 l 488 1128 l 549 1128 l 611 1198 l 833 1198 l 677 1004 m 507 972 q 751 936 648 972 q 915 833 854 900 q 1004 680 975 766 q 1032 486 1032 594 q 1015 329 1032 401 q 958 196 998 258 q 858 91 918 134 q 709 24 798 48 q 507 0 620 0 l 46 0 l 46 972 l 507 972 m 507 220 q 703 288 634 220 q 771 486 771 355 q 703 686 771 618 q 507 753 634 753 l 309 753 l 308 220 l 507 220 z "},"ď":{"ha":1067,"x_min":46,"x_max":1032,"o":"m 677 1004 l 359 1004 l 203 1198 l 425 1198 l 488 1128 l 549 1128 l 611 1198 l 833 1198 l 677 1004 m 507 972 q 751 936 648 972 q 915 833 854 900 q 1004 680 975 766 q 1032 486 1032 594 q 1015 329 1032 401 q 958 196 998 258 q 858 91 918 134 q 709 24 798 48 q 507 0 620 0 l 46 0 l 46 972 l 507 972 m 507 220 q 703 288 634 220 q 771 486 771 355 q 703 686 771 618 q 507 753 634 753 l 309 753 l 308 220 l 507 220 z "},"Đ":{"ha":1132,"x_min":6,"x_max":1097,"o":"m 572 972 q 773 948 684 972 q 923 882 863 924 q 1023 777 983 839 q 1080 644 1062 715 q 1097 486 1097 572 q 1080 329 1097 401 q 1023 196 1062 258 q 923 91 983 134 q 774 24 863 48 q 572 0 684 0 l 111 0 l 111 390 l 6 390 l 6 582 l 111 582 l 111 972 l 572 972 m 572 220 q 767 288 699 220 q 836 486 836 355 q 767 686 836 618 q 572 753 699 753 l 374 753 l 374 582 l 534 582 l 534 390 l 373 390 l 373 220 l 572 220 z "},"đ":{"ha":1132,"x_min":6,"x_max":1097,"o":"m 572 972 q 773 948 684 972 q 923 882 863 924 q 1023 777 983 839 q 1080 644 1062 715 q 1097 486 1097 572 q 1080 329 1097 401 q 1023 196 1062 258 q 923 91 983 134 q 774 24 863 48 q 572 0 684 0 l 111 0 l 111 390 l 6 390 l 6 582 l 111 582 l 111 972 l 572 972 m 572 220 q 767 288 699 220 q 836 486 836 355 q 767 686 836 618 q 572 753 699 753 l 374 753 l 374 582 l 534 582 l 534 390 l 373 390 l 373 220 l 572 220 z "},"Ē":{"ha":930,"x_min":46,"x_max":884,"o":"m 215 1035 l 215 1227 l 701 1227 l 701 1035 l 215 1035 m 46 0 l 46 972 l 884 972 l 884 760 l 308 760 l 308 578 l 863 578 l 863 396 l 308 396 l 308 212 l 884 212 l 884 0 l 46 0 z "},"ē":{"ha":930,"x_min":46,"x_max":884,"o":"m 215 1035 l 215 1227 l 701 1227 l 701 1035 l 215 1035 m 46 0 l 46 972 l 884 972 l 884 760 l 308 760 l 308 578 l 863 578 l 863 396 l 308 396 l 308 212 l 884 212 l 884 0 l 46 0 z "},"Ė":{"ha":930,"x_min":46,"x_max":884,"o":"m 458 1040 q 386 1068 416 1040 q 355 1138 355 1096 q 386 1208 355 1180 q 458 1236 416 1236 q 532 1208 502 1236 q 562 1138 562 1180 q 532 1068 562 1096 q 458 1040 502 1040 m 46 0 l 46 972 l 884 972 l 884 760 l 308 760 l 308 578 l 863 578 l 863 396 l 308 396 l 308 212 l 884 212 l 884 0 l 46 0 z "},"ė":{"ha":930,"x_min":46,"x_max":884,"o":"m 458 1040 q 386 1068 416 1040 q 355 1138 355 1096 q 386 1208 355 1180 q 458 1236 416 1236 q 532 1208 502 1236 q 562 1138 562 1180 q 532 1068 562 1096 q 458 1040 502 1040 m 46 0 l 46 972 l 884 972 l 884 760 l 308 760 l 308 578 l 863 578 l 863 396 l 308 396 l 308 212 l 884 212 l 884 0 l 46 0 z "},"Ę":{"ha":930,"x_min":46,"x_max":884,"o":"m 884 760 l 308 760 l 308 578 l 863 578 l 863 396 l 308 396 l 308 212 l 884 212 l 884 0 q 806 -22 830 0 q 781 -73 781 -44 q 798 -116 781 -98 q 857 -133 815 -134 l 857 -280 q 792 -276 824 -280 q 725 -259 760 -271 q 664 -229 690 -248 q 621 -179 638 -211 q 604 -108 604 -148 q 647 0 604 -43 l 46 0 l 46 972 l 884 972 l 884 760 z "},"ę":{"ha":930,"x_min":46,"x_max":884,"o":"m 884 760 l 308 760 l 308 578 l 863 578 l 863 396 l 308 396 l 308 212 l 884 212 l 884 0 q 806 -22 830 0 q 781 -73 781 -44 q 798 -116 781 -98 q 857 -133 815 -134 l 857 -280 q 792 -276 824 -280 q 725 -259 760 -271 q 664 -229 690 -248 q 621 -179 638 -211 q 604 -108 604 -148 q 647 0 604 -43 l 46 0 l 46 972 l 884 972 l 884 760 z "},"Ě":{"ha":930,"x_min":46,"x_max":884,"o":"m 144 1198 l 366 1198 l 428 1128 l 490 1128 l 552 1198 l 774 1198 l 618 1004 l 300 1004 l 144 1198 m 46 0 l 46 972 l 884 972 l 884 760 l 308 760 l 308 578 l 863 578 l 863 396 l 308 396 l 308 212 l 884 212 l 884 0 l 46 0 z "},"ě":{"ha":930,"x_min":46,"x_max":884,"o":"m 144 1198 l 366 1198 l 428 1128 l 490 1128 l 552 1198 l 774 1198 l 618 1004 l 300 1004 l 144 1198 m 46 0 l 46 972 l 884 972 l 884 760 l 308 760 l 308 578 l 863 578 l 863 396 l 308 396 l 308 212 l 884 212 l 884 0 l 46 0 z "},"Ğ":{"ha":1121,"x_min":29,"x_max":1069,"o":"m 566 1030 q 374 1075 431 1030 q 317 1225 316 1120 l 479 1225 q 503 1166 479 1187 q 566 1145 526 1145 q 630 1166 607 1145 q 653 1225 653 1187 l 814 1225 q 759 1075 816 1120 q 566 1030 702 1030 m 1069 522 l 1069 0 l 916 0 l 912 136 q 767 13 859 59 q 551 -33 675 -33 q 345 6 441 -33 q 179 112 249 44 q 70 276 110 179 q 29 486 29 374 q 97 756 29 639 q 288 939 164 874 q 573 1004 412 1004 q 703 992 640 1004 q 824 952 765 979 q 929 884 883 924 q 1010 784 976 844 q 1058 652 1044 725 l 799 652 q 716 744 775 709 q 578 779 658 779 q 370 697 451 779 q 288 486 288 616 q 369 275 288 357 q 570 193 449 193 q 624 198 597 193 q 682 214 650 202 q 739 243 713 225 q 785 292 764 262 q 816 362 806 323 l 557 362 l 557 522 l 1069 522 z "},"ğ":{"ha":1121,"x_min":29,"x_max":1069,"o":"m 566 1030 q 374 1075 431 1030 q 317 1225 316 1120 l 479 1225 q 503 1166 479 1187 q 566 1145 526 1145 q 630 1166 607 1145 q 653 1225 653 1187 l 814 1225 q 759 1075 816 1120 q 566 1030 702 1030 m 1069 522 l 1069 0 l 916 0 l 912 136 q 767 13 859 59 q 551 -33 675 -33 q 345 6 441 -33 q 179 112 249 44 q 70 276 110 179 q 29 486 29 374 q 97 756 29 639 q 288 939 164 874 q 573 1004 412 1004 q 703 992 640 1004 q 824 952 765 979 q 929 884 883 924 q 1010 784 976 844 q 1058 652 1044 725 l 799 652 q 716 744 775 709 q 578 779 658 779 q 370 697 451 779 q 288 486 288 616 q 369 275 288 357 q 570 193 449 193 q 624 198 597 193 q 682 214 650 202 q 739 243 713 225 q 785 292 764 262 q 816 362 806 323 l 557 362 l 557 522 l 1069 522 z "},"Ġ":{"ha":1121,"x_min":29,"x_max":1069,"o":"m 566 1040 q 493 1068 524 1040 q 463 1138 463 1096 q 493 1208 463 1180 q 566 1236 524 1236 q 639 1208 610 1236 q 669 1138 669 1180 q 639 1068 669 1096 q 566 1040 610 1040 m 1069 522 l 1069 0 l 916 0 l 912 136 q 767 13 859 59 q 551 -33 675 -33 q 345 6 441 -33 q 179 112 249 44 q 70 276 110 179 q 29 486 29 374 q 97 756 29 639 q 288 939 164 874 q 573 1004 412 1004 q 703 992 640 1004 q 824 952 765 979 q 929 884 883 924 q 1010 784 976 844 q 1058 652 1044 725 l 799 652 q 716 744 775 709 q 578 779 658 779 q 370 697 451 779 q 288 486 288 616 q 369 275 288 357 q 570 193 449 193 q 624 198 597 193 q 682 214 650 202 q 739 243 713 225 q 785 292 764 262 q 816 362 806 323 l 557 362 l 557 522 l 1069 522 z "},"ġ":{"ha":1121,"x_min":29,"x_max":1069,"o":"m 566 1040 q 493 1068 524 1040 q 463 1138 463 1096 q 493 1208 463 1180 q 566 1236 524 1236 q 639 1208 610 1236 q 669 1138 669 1180 q 639 1068 669 1096 q 566 1040 610 1040 m 1069 522 l 1069 0 l 916 0 l 912 136 q 767 13 859 59 q 551 -33 675 -33 q 345 6 441 -33 q 179 112 249 44 q 70 276 110 179 q 29 486 29 374 q 97 756 29 639 q 288 939 164 874 q 573 1004 412 1004 q 703 992 640 1004 q 824 952 765 979 q 929 884 883 924 q 1010 784 976 844 q 1058 652 1044 725 l 799 652 q 716 744 775 709 q 578 779 658 779 q 370 697 451 779 q 288 486 288 616 q 369 275 288 357 q 570 193 449 193 q 624 198 597 193 q 682 214 650 202 q 739 243 713 225 q 785 292 764 262 q 816 362 806 323 l 557 362 l 557 522 l 1069 522 z "},"Ģ":{"ha":1121,"x_min":29,"x_max":1069,"o":"m 1069 522 l 1069 0 l 916 0 l 912 136 q 767 13 859 59 q 551 -33 675 -33 q 345 6 441 -33 q 179 112 249 44 q 70 276 110 179 q 29 486 29 374 q 97 756 29 639 q 288 939 164 874 q 573 1004 412 1004 q 703 992 640 1004 q 824 952 765 979 q 929 884 883 924 q 1010 784 976 844 q 1058 652 1044 725 l 799 652 q 716 744 775 709 q 578 779 658 779 q 370 697 451 779 q 288 486 288 616 q 369 275 288 357 q 570 193 449 193 q 624 198 597 193 q 682 214 650 202 q 739 243 713 225 q 785 292 764 262 q 816 362 806 323 l 557 362 l 557 522 l 1069 522 m 426 -267 l 426 -73 l 711 -73 l 711 -118 q 694 -359 711 -258 q 655 -505 677 -460 l 511 -505 q 527 -267 530 -400 l 426 -267 z "},"ģ":{"ha":1121,"x_min":29,"x_max":1069,"o":"m 1069 522 l 1069 0 l 916 0 l 912 136 q 767 13 859 59 q 551 -33 675 -33 q 345 6 441 -33 q 179 112 249 44 q 70 276 110 179 q 29 486 29 374 q 97 756 29 639 q 288 939 164 874 q 573 1004 412 1004 q 703 992 640 1004 q 824 952 765 979 q 929 884 883 924 q 1010 784 976 844 q 1058 652 1044 725 l 799 652 q 716 744 775 709 q 578 779 658 779 q 370 697 451 779 q 288 486 288 616 q 369 275 288 357 q 570 193 449 193 q 624 198 597 193 q 682 214 650 202 q 739 243 713 225 q 785 292 764 262 q 816 362 806 323 l 557 362 l 557 522 l 1069 522 m 426 -267 l 426 -73 l 711 -73 l 711 -118 q 694 -359 711 -258 q 655 -505 677 -460 l 511 -505 q 527 -267 530 -400 l 426 -267 z "},"Ħ":{"ha":1062,"x_min":46,"x_max":1016,"o":"m 755 972 l 1016 972 l 1016 0 l 755 0 l 755 377 l 308 377 l 308 0 l 46 0 l 46 972 l 308 972 l 308 855 l 755 855 l 755 972 m 308 595 l 755 595 l 755 673 l 308 673 l 308 595 z "},"ħ":{"ha":1062,"x_min":46,"x_max":1016,"o":"m 755 972 l 1016 972 l 1016 0 l 755 0 l 755 377 l 308 377 l 308 0 l 46 0 l 46 972 l 308 972 l 308 855 l 755 855 l 755 972 m 308 595 l 755 595 l 755 673 l 308 673 l 308 595 z "},"Ī":{"ha":354,"x_min":-66,"x_max":420,"o":"m -66 1035 l -66 1227 l 420 1227 l 420 1035 l -66 1035 m 46 0 l 46 972 l 308 972 l 308 0 l 46 0 z "},"ī":{"ha":354,"x_min":-66,"x_max":420,"o":"m -66 1035 l -66 1227 l 420 1227 l 420 1035 l -66 1035 m 46 0 l 46 972 l 308 972 l 308 0 l 46 0 z "},"Į":{"ha":354,"x_min":28,"x_max":308,"o":"m 46 972 l 308 972 l 308 0 q 229 -22 254 0 q 205 -73 205 -44 q 222 -116 205 -98 q 280 -133 239 -134 l 280 -280 q 216 -276 248 -280 q 149 -259 184 -271 q 88 -229 114 -248 q 45 -179 62 -211 q 28 -108 28 -148 q 71 0 28 -43 l 46 0 l 46 972 z "},"į":{"ha":354,"x_min":28,"x_max":308,"o":"m 46 972 l 308 972 l 308 0 q 229 -22 254 0 q 205 -73 205 -44 q 222 -116 205 -98 q 280 -133 239 -134 l 280 -280 q 216 -276 248 -280 q 149 -259 184 -271 q 88 -229 114 -248 q 45 -179 62 -211 q 28 -108 28 -148 q 71 0 28 -43 l 46 0 l 46 972 z "},"İ":{"ha":354,"x_min":46,"x_max":308,"o":"m 177 1040 q 104 1068 134 1040 q 74 1138 74 1096 q 104 1208 74 1180 q 177 1236 134 1236 q 250 1208 220 1236 q 280 1138 280 1180 q 250 1068 280 1096 q 177 1040 220 1040 m 46 0 l 46 972 l 308 972 l 308 0 l 46 0 z "},"ı":{"ha":354,"x_min":46,"x_max":308,"o":"m 46 0 l 46 972 l 308 972 l 308 0 l 46 0 z "},"Ĳ":{"ha":1265,"x_min":46,"x_max":1219,"o":"m 46 0 l 46 972 l 308 972 l 308 0 l 46 0 m 791 -33 q 655 -20 716 -33 q 540 20 593 -8 q 451 94 487 49 q 396 206 416 138 q 377 362 376 274 l 637 362 q 650 280 637 315 q 686 226 663 245 q 736 198 709 207 q 796 190 763 190 q 855 199 829 190 q 906 229 882 208 q 944 292 930 250 q 958 393 958 334 l 958 972 l 1219 972 l 1219 404 q 1190 200 1219 286 q 1104 64 1161 115 q 970 -9 1047 14 q 791 -33 894 -33 z "},"Ķ":{"ha":1045,"x_min":46,"x_max":1048,"o":"m 627 541 l 1048 0 l 779 0 l 480 383 l 463 383 l 307 220 l 307 0 l 46 0 l 46 972 l 307 972 l 307 534 l 324 534 l 736 972 l 1029 972 l 627 541 m 393 -267 l 393 -73 l 677 -73 l 677 -118 q 660 -359 677 -258 q 621 -505 644 -460 l 478 -505 q 493 -267 496 -404 l 393 -267 z "},"ķ":{"ha":1045,"x_min":46,"x_max":1048,"o":"m 627 541 l 1048 0 l 779 0 l 480 383 l 463 383 l 307 220 l 307 0 l 46 0 l 46 972 l 307 972 l 307 534 l 324 534 l 736 972 l 1029 972 l 627 541 m 393 -267 l 393 -73 l 677 -73 l 677 -118 q 660 -359 677 -258 q 621 -505 644 -460 l 478 -505 q 493 -267 496 -404 l 393 -267 z "},"Ĺ":{"ha":895,"x_min":46,"x_max":854,"o":"m 46 1019 l 128 1213 l 361 1213 l 279 1019 l 46 1019 m 46 0 l 46 972 l 308 972 l 308 219 l 854 219 l 854 0 l 46 0 z "},"ĺ":{"ha":895,"x_min":46,"x_max":854,"o":"m 46 1019 l 128 1213 l 361 1213 l 279 1019 l 46 1019 m 46 0 l 46 972 l 308 972 l 308 219 l 854 219 l 854 0 l 46 0 z "},"Ļ":{"ha":895,"x_min":46,"x_max":854,"o":"m 46 0 l 46 972 l 308 972 l 308 219 l 854 219 l 854 0 l 46 0 m 393 -505 q 408 -267 410 -404 l 307 -267 l 307 -73 l 591 -73 l 591 -118 q 575 -359 591 -258 q 536 -505 558 -460 l 393 -505 z "},"ļ":{"ha":895,"x_min":46,"x_max":854,"o":"m 46 0 l 46 972 l 308 972 l 308 219 l 854 219 l 854 0 l 46 0 m 393 -505 q 408 -267 410 -404 l 307 -267 l 307 -73 l 591 -73 l 591 -118 q 575 -359 591 -258 q 536 -505 558 -460 l 393 -505 z "},"Ľ":{"ha":895,"x_min":46,"x_max":854,"o":"m 515 485 q 532 755 535 609 l 418 755 l 418 973 l 740 973 l 740 922 q 721 650 740 764 q 677 485 702 535 l 515 485 m 46 0 l 46 972 l 308 972 l 308 219 l 854 219 l 854 0 l 46 0 z "},"ľ":{"ha":895,"x_min":46,"x_max":854,"o":"m 515 485 q 532 755 535 609 l 418 755 l 418 973 l 740 973 l 740 922 q 721 650 740 764 q 677 485 702 535 l 515 485 m 46 0 l 46 972 l 308 972 l 308 219 l 854 219 l 854 0 l 46 0 z "},"Ŀ":{"ha":895,"x_min":46,"x_max":854,"o":"m 46 0 l 46 972 l 308 972 l 308 219 l 854 219 l 854 0 l 46 0 m 688 516 q 668 497 688 516 q 593 477 648 477 q 497 516 537 477 q 457 611 457 556 q 497 705 457 666 q 593 744 537 744 q 688 705 648 744 q 728 611 728 666 q 688 516 728 556 z "},"Ł":{"ha":929,"x_min":0,"x_max":889,"o":"m 342 219 l 889 219 l 889 0 l 81 0 l 81 271 l 0 207 l 0 401 l 81 465 l 81 972 l 342 972 l 342 670 l 514 804 l 514 610 l 342 475 l 342 219 z "},"ł":{"ha":929,"x_min":0,"x_max":889,"o":"m 342 219 l 889 219 l 889 0 l 81 0 l 81 271 l 0 207 l 0 401 l 81 465 l 81 972 l 342 972 l 342 670 l 514 804 l 514 610 l 342 475 l 342 219 z "},"Ń":{"ha":1081,"x_min":46,"x_max":1035,"o":"m 424 1030 l 506 1225 l 739 1225 l 656 1030 l 424 1030 m 46 0 l 46 972 l 349 972 l 757 361 l 780 361 l 780 972 l 1035 972 l 1035 0 l 740 0 l 326 611 l 301 611 l 301 0 l 46 0 z "},"ń":{"ha":1081,"x_min":46,"x_max":1035,"o":"m 424 1030 l 506 1225 l 739 1225 l 656 1030 l 424 1030 m 46 0 l 46 972 l 349 972 l 757 361 l 780 361 l 780 972 l 1035 972 l 1035 0 l 740 0 l 326 611 l 301 611 l 301 0 l 46 0 z "},"Ņ":{"ha":1081,"x_min":46,"x_max":1035,"o":"m 46 0 l 46 972 l 349 972 l 757 361 l 780 361 l 780 972 l 1035 972 l 1035 0 l 740 0 l 326 611 l 301 611 l 301 0 l 46 0 m 486 -505 q 501 -267 504 -404 l 401 -267 l 401 -73 l 685 -73 l 685 -118 q 668 -359 685 -258 q 629 -505 652 -460 l 486 -505 z "},"ņ":{"ha":1081,"x_min":46,"x_max":1035,"o":"m 46 0 l 46 972 l 349 972 l 757 361 l 780 361 l 780 972 l 1035 972 l 1035 0 l 740 0 l 326 611 l 301 611 l 301 0 l 46 0 m 486 -505 q 501 -267 504 -404 l 401 -267 l 401 -73 l 685 -73 l 685 -118 q 668 -359 685 -258 q 629 -505 652 -460 l 486 -505 z "},"Ň":{"ha":1081,"x_min":46,"x_max":1035,"o":"m 226 1198 l 448 1198 l 511 1128 l 572 1128 l 634 1198 l 857 1198 l 701 1004 l 382 1004 l 226 1198 m 46 0 l 46 972 l 349 972 l 757 361 l 780 361 l 780 972 l 1035 972 l 1035 0 l 740 0 l 326 611 l 301 611 l 301 0 l 46 0 z "},"ň":{"ha":1081,"x_min":46,"x_max":1035,"o":"m 226 1198 l 448 1198 l 511 1128 l 572 1128 l 634 1198 l 857 1198 l 701 1004 l 382 1004 l 226 1198 m 46 0 l 46 972 l 349 972 l 757 361 l 780 361 l 780 972 l 1035 972 l 1035 0 l 740 0 l 326 611 l 301 611 l 301 0 l 46 0 z "},"Ŋ":{"ha":1081,"x_min":46,"x_max":1035,"o":"m 780 972 l 1035 972 l 1035 0 q 925 -260 1034 -176 q 616 -344 816 -344 l 619 -125 q 780 -2 780 -125 l 780 0 l 740 0 l 326 611 l 301 611 l 301 0 l 46 0 l 46 972 l 349 972 l 757 361 l 780 361 l 780 972 z "},"ŋ":{"ha":1081,"x_min":46,"x_max":1035,"o":"m 780 972 l 1035 972 l 1035 0 q 925 -260 1034 -176 q 616 -344 816 -344 l 619 -125 q 780 -2 780 -125 l 780 0 l 740 0 l 326 611 l 301 611 l 301 0 l 46 0 l 46 972 l 349 972 l 757 361 l 780 361 l 780 972 z "},"Ō":{"ha":1137,"x_min":29,"x_max":1109,"o":"m 326 1040 l 326 1232 l 812 1232 l 812 1040 l 326 1040 m 570 -33 q 287 33 410 -33 q 96 216 163 98 q 29 486 29 334 q 96 756 29 639 q 287 939 163 874 q 570 1004 410 1004 q 960 861 811 1004 q 1109 486 1109 718 q 1042 216 1109 334 q 852 33 975 98 q 570 -33 729 -33 m 570 193 q 770 274 690 193 q 850 486 850 355 q 770 699 850 618 q 570 779 690 779 q 368 699 448 779 q 288 486 288 618 q 368 274 288 355 q 570 193 448 193 z "},"ō":{"ha":1137,"x_min":29,"x_max":1109,"o":"m 326 1040 l 326 1232 l 812 1232 l 812 1040 l 326 1040 m 570 -33 q 287 33 410 -33 q 96 216 163 98 q 29 486 29 334 q 96 756 29 639 q 287 939 163 874 q 570 1004 410 1004 q 960 861 811 1004 q 1109 486 1109 718 q 1042 216 1109 334 q 852 33 975 98 q 570 -33 729 -33 m 570 193 q 770 274 690 193 q 850 486 850 355 q 770 699 850 618 q 570 779 690 779 q 368 699 448 779 q 288 486 288 618 q 368 274 288 355 q 570 193 448 193 z "},"Ő":{"ha":1137,"x_min":29,"x_max":1109,"o":"m 274 1042 l 357 1236 l 589 1236 l 507 1042 l 274 1042 m 574 1042 l 656 1236 l 889 1236 l 807 1042 l 574 1042 m 570 -33 q 287 33 410 -33 q 96 216 163 98 q 29 486 29 334 q 96 756 29 639 q 287 939 163 874 q 570 1004 410 1004 q 960 861 811 1004 q 1109 486 1109 718 q 1042 216 1109 334 q 852 33 975 98 q 570 -33 729 -33 m 570 193 q 770 274 690 193 q 850 486 850 355 q 770 699 850 618 q 570 779 690 779 q 368 699 448 779 q 288 486 288 618 q 368 274 288 355 q 570 193 448 193 z "},"ő":{"ha":1137,"x_min":29,"x_max":1109,"o":"m 274 1042 l 357 1236 l 589 1236 l 507 1042 l 274 1042 m 574 1042 l 656 1236 l 889 1236 l 807 1042 l 574 1042 m 570 -33 q 287 33 410 -33 q 96 216 163 98 q 29 486 29 334 q 96 756 29 639 q 287 939 163 874 q 570 1004 410 1004 q 960 861 811 1004 q 1109 486 1109 718 q 1042 216 1109 334 q 852 33 975 98 q 570 -33 729 -33 m 570 193 q 770 274 690 193 q 850 486 850 355 q 770 699 850 618 q 570 779 690 779 q 368 699 448 779 q 288 486 288 618 q 368 274 288 355 q 570 193 448 193 z "},"Œ":{"ha":1733,"x_min":29,"x_max":1687,"o":"m 1687 760 l 1111 760 l 1111 578 l 1667 578 l 1667 396 l 1111 396 l 1111 212 l 1687 212 l 1687 0 l 850 0 l 850 33 q 570 -33 726 -33 q 287 33 410 -33 q 96 216 163 98 q 29 486 29 334 q 96 756 29 639 q 287 939 163 874 q 570 1004 410 1004 q 850 940 727 1004 l 850 972 l 1687 972 l 1687 760 m 570 193 q 762 266 683 193 q 850 457 840 338 l 850 516 q 762 707 840 635 q 570 779 683 779 q 368 699 448 779 q 288 486 288 618 q 368 274 288 355 q 570 193 448 193 z "},"œ":{"ha":1733,"x_min":29,"x_max":1687,"o":"m 1687 760 l 1111 760 l 1111 578 l 1667 578 l 1667 396 l 1111 396 l 1111 212 l 1687 212 l 1687 0 l 850 0 l 850 33 q 570 -33 726 -33 q 287 33 410 -33 q 96 216 163 98 q 29 486 29 334 q 96 756 29 639 q 287 939 163 874 q 570 1004 410 1004 q 850 940 727 1004 l 850 972 l 1687 972 l 1687 760 m 570 193 q 762 266 683 193 q 850 457 840 338 l 850 516 q 762 707 840 635 q 570 779 683 779 q 368 699 448 779 q 288 486 288 618 q 368 274 288 355 q 570 193 448 193 z "},"Ŕ":{"ha":1031,"x_min":46,"x_max":1006,"o":"m 704 1225 l 621 1030 l 389 1030 l 471 1225 l 704 1225 m 1006 0 l 748 0 l 598 277 l 308 277 l 308 0 l 46 0 l 46 972 l 573 972 q 875 883 771 972 q 979 617 979 793 q 937 446 979 519 q 822 330 895 373 l 1006 0 m 308 755 l 308 475 l 557 475 q 677 510 636 475 q 719 614 719 546 q 677 719 719 683 q 557 755 635 755 l 308 755 z "},"ŕ":{"ha":1031,"x_min":46,"x_max":1006,"o":"m 704 1225 l 621 1030 l 389 1030 l 471 1225 l 704 1225 m 1006 0 l 748 0 l 598 277 l 308 277 l 308 0 l 46 0 l 46 972 l 573 972 q 875 883 771 972 q 979 617 979 793 q 937 446 979 519 q 822 330 895 373 l 1006 0 m 308 755 l 308 475 l 557 475 q 677 510 636 475 q 719 614 719 546 q 677 719 719 683 q 557 755 635 755 l 308 755 z "},"Ŗ":{"ha":1031,"x_min":46,"x_max":1006,"o":"m 822 330 l 1006 0 l 748 0 l 598 277 l 308 277 l 308 0 l 46 0 l 46 972 l 573 972 q 875 883 771 972 q 979 617 979 793 q 937 446 979 519 q 822 330 895 373 m 308 755 l 308 475 l 557 475 q 677 510 636 475 q 719 614 719 546 q 677 719 719 683 q 557 755 635 755 l 308 755 m 366 -267 l 366 -73 l 650 -73 l 650 -118 q 634 -359 650 -258 q 595 -505 617 -460 l 452 -505 q 467 -267 469 -404 l 366 -267 z "},"ŗ":{"ha":1031,"x_min":46,"x_max":1006,"o":"m 822 330 l 1006 0 l 748 0 l 598 277 l 308 277 l 308 0 l 46 0 l 46 972 l 573 972 q 875 883 771 972 q 979 617 979 793 q 937 446 979 519 q 822 330 895 373 m 308 755 l 308 475 l 557 475 q 677 510 636 475 q 719 614 719 546 q 677 719 719 683 q 557 755 635 755 l 308 755 m 366 -267 l 366 -73 l 650 -73 l 650 -118 q 634 -359 650 -258 q 595 -505 617 -460 l 452 -505 q 467 -267 469 -404 l 366 -267 z "},"Ř":{"ha":1031,"x_min":46,"x_max":1006,"o":"m 665 1004 l 347 1004 l 191 1198 l 413 1198 l 475 1128 l 537 1128 l 600 1198 l 822 1198 l 665 1004 m 1006 0 l 748 0 l 598 277 l 308 277 l 308 0 l 46 0 l 46 972 l 573 972 q 875 883 771 972 q 979 617 979 793 q 937 446 979 519 q 822 330 895 373 l 1006 0 m 308 755 l 308 475 l 557 475 q 677 510 636 475 q 719 614 719 546 q 677 719 719 683 q 557 755 635 755 l 308 755 z "},"ř":{"ha":1031,"x_min":46,"x_max":1006,"o":"m 665 1004 l 347 1004 l 191 1198 l 413 1198 l 475 1128 l 537 1128 l 600 1198 l 822 1198 l 665 1004 m 1006 0 l 748 0 l 598 277 l 308 277 l 308 0 l 46 0 l 46 972 l 573 972 q 875 883 771 972 q 979 617 979 793 q 937 446 979 519 q 822 330 895 373 l 1006 0 m 308 755 l 308 475 l 557 475 q 677 510 636 475 q 719 614 719 546 q 677 719 719 683 q 557 755 635 755 l 308 755 z "},"Ś":{"ha":987,"x_min":20,"x_max":961,"o":"m 376 1030 l 458 1225 l 691 1225 l 609 1030 l 376 1030 m 488 -33 q 136 51 252 -33 q 23 309 20 134 l 259 309 q 320 210 264 245 q 488 174 377 174 q 646 203 591 173 q 701 283 701 233 q 666 352 701 326 q 551 390 631 377 l 429 411 q 367 422 392 417 q 307 435 342 427 q 248 452 272 444 q 195 473 224 460 q 146 501 165 486 q 107 537 127 516 q 75 583 87 558 q 56 638 64 607 q 49 706 49 669 q 163 926 49 847 q 488 1004 277 1004 q 636 994 570 1004 q 758 959 702 983 q 852 895 814 934 q 912 799 890 857 q 933 667 933 741 l 699 667 q 484 800 677 800 q 346 772 393 800 q 300 694 300 744 q 427 594 300 615 l 532 575 q 571 568 545 573 q 650 554 623 559 q 726 537 677 549 q 801 511 774 524 q 863 476 828 498 q 916 427 898 454 q 948 361 935 400 q 961 275 961 323 q 841 45 961 124 q 488 -33 721 -33 z "},"ś":{"ha":987,"x_min":20,"x_max":961,"o":"m 376 1030 l 458 1225 l 691 1225 l 609 1030 l 376 1030 m 488 -33 q 136 51 252 -33 q 23 309 20 134 l 259 309 q 320 210 264 245 q 488 174 377 174 q 646 203 591 173 q 701 283 701 233 q 666 352 701 326 q 551 390 631 377 l 429 411 q 367 422 392 417 q 307 435 342 427 q 248 452 272 444 q 195 473 224 460 q 146 501 165 486 q 107 537 127 516 q 75 583 87 558 q 56 638 64 607 q 49 706 49 669 q 163 926 49 847 q 488 1004 277 1004 q 636 994 570 1004 q 758 959 702 983 q 852 895 814 934 q 912 799 890 857 q 933 667 933 741 l 699 667 q 484 800 677 800 q 346 772 393 800 q 300 694 300 744 q 427 594 300 615 l 532 575 q 571 568 545 573 q 650 554 623 559 q 726 537 677 549 q 801 511 774 524 q 863 476 828 498 q 916 427 898 454 q 948 361 935 400 q 961 275 961 323 q 841 45 961 124 q 488 -33 721 -33 z "},"Ş":{"ha":987,"x_min":20,"x_max":961,"o":"m 961 275 q 851 52 961 131 q 528 -33 741 -26 l 514 -43 q 606 -81 568 -48 q 644 -172 644 -113 q 621 -248 644 -216 q 559 -295 597 -279 q 471 -314 521 -310 q 367 -306 420 -318 l 367 -198 q 440 -204 412 -207 q 482 -194 469 -202 q 495 -176 495 -186 q 482 -154 495 -163 q 440 -142 469 -145 q 367 -152 412 -140 l 367 -79 l 425 -31 q 121 62 221 -21 q 23 309 20 146 l 259 309 q 320 210 264 245 q 488 174 377 174 q 646 203 591 173 q 701 283 701 233 q 666 352 701 326 q 551 390 631 377 l 429 411 q 367 422 392 417 q 307 435 342 427 q 248 452 272 444 q 195 473 224 460 q 146 501 165 486 q 107 537 127 516 q 75 583 87 558 q 56 638 64 607 q 49 706 49 669 q 163 926 49 847 q 488 1004 277 1004 q 636 994 570 1004 q 758 959 702 983 q 852 895 814 934 q 912 799 890 857 q 933 667 933 741 l 699 667 q 484 800 677 800 q 346 772 393 800 q 300 694 300 744 q 427 594 300 615 l 532 575 q 571 568 545 573 q 650 554 623 559 q 726 537 677 549 q 801 511 774 524 q 863 476 828 498 q 916 427 898 454 q 948 361 935 400 q 961 275 961 323 z "},"ş":{"ha":987,"x_min":20,"x_max":961,"o":"m 961 275 q 851 52 961 131 q 528 -33 741 -26 l 514 -43 q 606 -81 568 -48 q 644 -172 644 -113 q 621 -248 644 -216 q 559 -295 597 -279 q 471 -314 521 -310 q 367 -306 420 -318 l 367 -198 q 440 -204 412 -207 q 482 -194 469 -202 q 495 -176 495 -186 q 482 -154 495 -163 q 440 -142 469 -145 q 367 -152 412 -140 l 367 -79 l 425 -31 q 121 62 221 -21 q 23 309 20 146 l 259 309 q 320 210 264 245 q 488 174 377 174 q 646 203 591 173 q 701 283 701 233 q 666 352 701 326 q 551 390 631 377 l 429 411 q 367 422 392 417 q 307 435 342 427 q 248 452 272 444 q 195 473 224 460 q 146 501 165 486 q 107 537 127 516 q 75 583 87 558 q 56 638 64 607 q 49 706 49 669 q 163 926 49 847 q 488 1004 277 1004 q 636 994 570 1004 q 758 959 702 983 q 852 895 814 934 q 912 799 890 857 q 933 667 933 741 l 699 667 q 484 800 677 800 q 346 772 393 800 q 300 694 300 744 q 427 594 300 615 l 532 575 q 571 568 545 573 q 650 554 623 559 q 726 537 677 549 q 801 511 774 524 q 863 476 828 498 q 916 427 898 454 q 948 361 935 400 q 961 275 961 323 z "},"Š":{"ha":987,"x_min":20,"x_max":961,"o":"m 532 575 q 571 568 545 573 q 650 554 623 559 q 726 537 677 549 q 801 511 774 524 q 863 476 828 498 q 916 427 898 454 q 948 361 935 400 q 961 275 961 323 q 841 45 961 124 q 488 -33 721 -33 q 136 51 252 -33 q 23 309 20 134 l 259 309 q 320 210 264 245 q 488 174 377 174 q 646 203 591 173 q 701 283 701 233 q 666 352 701 326 q 551 390 631 377 l 429 411 q 367 422 392 417 q 307 435 342 427 q 248 452 272 444 q 195 473 224 460 q 146 501 165 486 q 107 537 127 516 q 75 583 87 558 q 56 638 64 607 q 49 706 49 669 q 150 916 49 838 q 440 1004 252 994 l 334 1004 l 178 1198 l 401 1198 l 463 1128 l 524 1128 l 587 1198 l 809 1198 l 653 1004 l 541 1004 q 933 667 933 987 l 699 667 q 484 800 677 800 q 346 772 393 800 q 300 694 300 744 q 427 594 300 615 l 532 575 z "},"š":{"ha":987,"x_min":20,"x_max":961,"o":"m 532 575 q 571 568 545 573 q 650 554 623 559 q 726 537 677 549 q 801 511 774 524 q 863 476 828 498 q 916 427 898 454 q 948 361 935 400 q 961 275 961 323 q 841 45 961 124 q 488 -33 721 -33 q 136 51 252 -33 q 23 309 20 134 l 259 309 q 320 210 264 245 q 488 174 377 174 q 646 203 591 173 q 701 283 701 233 q 666 352 701 326 q 551 390 631 377 l 429 411 q 367 422 392 417 q 307 435 342 427 q 248 452 272 444 q 195 473 224 460 q 146 501 165 486 q 107 537 127 516 q 75 583 87 558 q 56 638 64 607 q 49 706 49 669 q 150 916 49 838 q 440 1004 252 994 l 334 1004 l 178 1198 l 401 1198 l 463 1128 l 524 1128 l 587 1198 l 809 1198 l 653 1004 l 541 1004 q 933 667 933 987 l 699 667 q 484 800 677 800 q 346 772 393 800 q 300 694 300 744 q 427 594 300 615 l 532 575 z "},"Ţ":{"ha":1061,"x_min":41,"x_max":1021,"o":"m 661 0 l 606 0 l 552 -43 q 644 -81 606 -48 q 682 -172 682 -113 q 659 -248 682 -216 q 597 -295 635 -279 q 509 -314 559 -310 q 405 -306 458 -318 l 405 -198 q 478 -204 450 -207 q 520 -194 507 -202 q 534 -176 534 -186 q 520 -154 534 -163 q 478 -142 507 -145 q 405 -152 450 -140 l 405 -79 l 501 0 l 401 0 l 401 755 l 41 755 l 41 972 l 1021 972 l 1021 755 l 661 755 l 661 0 z "},"ţ":{"ha":1061,"x_min":41,"x_max":1021,"o":"m 661 0 l 606 0 l 552 -43 q 644 -81 606 -48 q 682 -172 682 -113 q 659 -248 682 -216 q 597 -295 635 -279 q 509 -314 559 -310 q 405 -306 458 -318 l 405 -198 q 478 -204 450 -207 q 520 -194 507 -202 q 534 -176 534 -186 q 520 -154 534 -163 q 478 -142 507 -145 q 405 -152 450 -140 l 405 -79 l 501 0 l 401 0 l 401 755 l 41 755 l 41 972 l 1021 972 l 1021 755 l 661 755 l 661 0 z "},"Ť":{"ha":1061,"x_min":41,"x_max":1021,"o":"m 691 1004 l 373 1004 l 216 1198 l 439 1198 l 501 1128 l 562 1128 l 625 1198 l 847 1198 l 691 1004 m 1021 972 l 1021 755 l 661 755 l 661 0 l 401 0 l 401 755 l 41 755 l 41 972 l 1021 972 z "},"ť":{"ha":1061,"x_min":41,"x_max":1021,"o":"m 691 1004 l 373 1004 l 216 1198 l 439 1198 l 501 1128 l 562 1128 l 625 1198 l 847 1198 l 691 1004 m 1021 972 l 1021 755 l 661 755 l 661 0 l 401 0 l 401 755 l 41 755 l 41 972 l 1021 972 z "},"Ŧ":{"ha":1061,"x_min":41,"x_max":1021,"o":"m 1021 755 l 661 755 l 661 557 l 909 557 l 909 365 l 661 365 l 661 0 l 401 0 l 401 365 l 155 365 l 155 557 l 401 557 l 401 755 l 41 755 l 41 972 l 1021 972 l 1021 755 z "},"ŧ":{"ha":1061,"x_min":41,"x_max":1021,"o":"m 1021 755 l 661 755 l 661 557 l 909 557 l 909 365 l 661 365 l 661 0 l 401 0 l 401 365 l 155 365 l 155 557 l 401 557 l 401 755 l 41 755 l 41 972 l 1021 972 l 1021 755 z "},"Ū":{"ha":1053,"x_min":46,"x_max":1007,"o":"m 283 1035 l 283 1227 l 770 1227 l 770 1035 l 283 1035 m 527 -33 q 168 77 290 -33 q 46 411 46 187 l 46 972 l 309 972 l 309 418 q 364 247 309 307 q 527 187 418 187 q 691 248 636 187 q 747 418 747 308 l 747 972 l 1007 972 l 1007 412 q 527 -33 1007 -33 z "},"ū":{"ha":1053,"x_min":46,"x_max":1007,"o":"m 283 1035 l 283 1227 l 770 1227 l 770 1035 l 283 1035 m 527 -33 q 168 77 290 -33 q 46 411 46 187 l 46 972 l 309 972 l 309 418 q 364 247 309 307 q 527 187 418 187 q 691 248 636 187 q 747 418 747 308 l 747 972 l 1007 972 l 1007 412 q 527 -33 1007 -33 z "},"Ŭ":{"ha":1053,"x_min":46,"x_max":1007,"o":"m 527 1030 q 334 1075 392 1030 q 278 1225 277 1120 l 440 1225 q 463 1166 440 1187 q 527 1145 486 1145 q 591 1166 568 1145 q 614 1225 614 1187 l 775 1225 q 720 1075 777 1120 q 527 1030 663 1030 m 527 -33 q 168 77 290 -33 q 46 411 46 187 l 46 972 l 309 972 l 309 418 q 364 247 309 307 q 527 187 418 187 q 691 248 636 187 q 747 418 747 308 l 747 972 l 1007 972 l 1007 412 q 527 -33 1007 -33 z "},"ŭ":{"ha":1053,"x_min":46,"x_max":1007,"o":"m 527 1030 q 334 1075 392 1030 q 278 1225 277 1120 l 440 1225 q 463 1166 440 1187 q 527 1145 486 1145 q 591 1166 568 1145 q 614 1225 614 1187 l 775 1225 q 720 1075 777 1120 q 527 1030 663 1030 m 527 -33 q 168 77 290 -33 q 46 411 46 187 l 46 972 l 309 972 l 309 418 q 364 247 309 307 q 527 187 418 187 q 691 248 636 187 q 747 418 747 308 l 747 972 l 1007 972 l 1007 412 q 527 -33 1007 -33 z "},"Ů":{"ha":1053,"x_min":46,"x_max":1007,"o":"m 635 1001 q 613 978 635 1001 q 527 956 591 956 q 418 1001 463 956 q 373 1107 373 1045 q 418 1216 373 1171 q 527 1261 463 1261 q 635 1216 591 1261 q 678 1107 678 1171 q 635 1001 678 1045 m 527 1071 q 555 1081 544 1071 q 565 1109 566 1091 q 554 1137 564 1127 q 527 1147 543 1147 q 498 1136 509 1147 q 488 1109 488 1126 q 498 1081 488 1091 q 527 1071 509 1071 m 527 -33 q 168 77 290 -33 q 46 411 46 187 l 46 972 l 309 972 l 309 418 q 364 247 309 307 q 527 187 418 187 q 691 248 636 187 q 747 418 747 308 l 747 972 l 1007 972 l 1007 412 q 527 -33 1007 -33 z "},"ů":{"ha":1053,"x_min":46,"x_max":1007,"o":"m 635 1001 q 613 978 635 1001 q 527 956 591 956 q 418 1001 463 956 q 373 1107 373 1045 q 418 1216 373 1171 q 527 1261 463 1261 q 635 1216 591 1261 q 678 1107 678 1171 q 635 1001 678 1045 m 527 1071 q 555 1081 544 1071 q 565 1109 566 1091 q 554 1137 564 1127 q 527 1147 543 1147 q 498 1136 509 1147 q 488 1109 488 1126 q 498 1081 488 1091 q 527 1071 509 1071 m 527 -33 q 168 77 290 -33 q 46 411 46 187 l 46 972 l 309 972 l 309 418 q 364 247 309 307 q 527 187 418 187 q 691 248 636 187 q 747 418 747 308 l 747 972 l 1007 972 l 1007 412 q 527 -33 1007 -33 z "},"Ű":{"ha":1053,"x_min":46,"x_max":1007,"o":"m 231 1037 l 314 1232 l 547 1232 l 464 1037 l 231 1037 m 531 1037 l 614 1232 l 846 1232 l 764 1037 l 531 1037 m 527 -33 q 168 77 290 -33 q 46 411 46 187 l 46 972 l 309 972 l 309 418 q 364 247 309 307 q 527 187 418 187 q 691 248 636 187 q 747 418 747 308 l 747 972 l 1007 972 l 1007 412 q 527 -33 1007 -33 z "},"ű":{"ha":1053,"x_min":46,"x_max":1007,"o":"m 231 1037 l 314 1232 l 547 1232 l 464 1037 l 231 1037 m 531 1037 l 614 1232 l 846 1232 l 764 1037 l 531 1037 m 527 -33 q 168 77 290 -33 q 46 411 46 187 l 46 972 l 309 972 l 309 418 q 364 247 309 307 q 527 187 418 187 q 691 248 636 187 q 747 418 747 308 l 747 972 l 1007 972 l 1007 412 q 527 -33 1007 -33 z "},"Ų":{"ha":1053,"x_min":46,"x_max":1007,"o":"m 747 972 l 1007 972 l 1007 412 q 648 -24 1007 28 l 644 -24 q 629 -26 636 -26 q 529 -85 529 -41 q 546 -118 529 -103 q 604 -133 564 -134 l 604 -280 q 523 -272 563 -280 q 442 -247 482 -264 q 377 -195 401 -230 q 352 -113 352 -161 q 390 -22 352 -56 q 46 411 46 37 l 46 972 l 309 972 l 309 418 q 364 247 309 307 q 527 187 418 187 q 691 248 636 187 q 747 418 747 308 l 747 972 z "},"ų":{"ha":1053,"x_min":46,"x_max":1007,"o":"m 747 972 l 1007 972 l 1007 412 q 648 -24 1007 28 l 644 -24 q 629 -26 636 -26 q 529 -85 529 -41 q 546 -118 529 -103 q 604 -133 564 -134 l 604 -280 q 523 -272 563 -280 q 442 -247 482 -264 q 377 -195 401 -230 q 352 -113 352 -161 q 390 -22 352 -56 q 46 411 46 37 l 46 972 l 309 972 l 309 418 q 364 247 309 307 q 527 187 418 187 q 691 248 636 187 q 747 418 747 308 l 747 972 z "},"Ŵ":{"ha":1455,"x_min":26,"x_max":1430,"o":"m 413 1030 l 570 1225 l 888 1225 l 1044 1030 l 822 1030 l 760 1099 l 698 1099 l 635 1030 l 413 1030 m 234 0 l 26 972 l 290 972 l 428 279 l 452 279 l 621 972 l 835 972 l 1004 279 l 1028 279 l 1166 972 l 1430 972 l 1222 0 l 869 0 l 740 565 l 716 565 l 587 0 l 234 0 z "},"ŵ":{"ha":1455,"x_min":26,"x_max":1430,"o":"m 413 1030 l 570 1225 l 888 1225 l 1044 1030 l 822 1030 l 760 1099 l 698 1099 l 635 1030 l 413 1030 m 234 0 l 26 972 l 290 972 l 428 279 l 452 279 l 621 972 l 835 972 l 1004 279 l 1028 279 l 1166 972 l 1430 972 l 1222 0 l 869 0 l 740 565 l 716 565 l 587 0 l 234 0 z "},"Ŷ":{"ha":1073,"x_min":6,"x_max":1067,"o":"m 506 1099 l 444 1030 l 221 1030 l 377 1225 l 696 1225 l 852 1030 l 629 1030 l 567 1099 l 506 1099 m 1067 972 l 667 308 l 667 0 l 406 0 l 406 309 l 6 972 l 282 972 l 524 560 l 549 560 l 791 972 l 1067 972 z "},"ŷ":{"ha":1073,"x_min":6,"x_max":1067,"o":"m 506 1099 l 444 1030 l 221 1030 l 377 1225 l 696 1225 l 852 1030 l 629 1030 l 567 1099 l 506 1099 m 1067 972 l 667 308 l 667 0 l 406 0 l 406 309 l 6 972 l 282 972 l 524 560 l 549 560 l 791 972 l 1067 972 z "},"Ÿ":{"ha":1073,"x_min":6,"x_max":1067,"o":"m 373 1040 q 300 1068 330 1040 q 270 1138 270 1096 q 300 1208 270 1180 q 373 1236 330 1236 q 446 1208 416 1236 q 475 1138 475 1180 q 446 1068 475 1096 q 373 1040 416 1040 m 701 1040 q 628 1068 658 1040 q 598 1138 598 1096 q 628 1208 598 1180 q 701 1236 658 1236 q 774 1208 744 1236 q 804 1138 804 1180 q 774 1068 804 1096 q 701 1040 744 1040 m 1067 972 l 667 308 l 667 0 l 406 0 l 406 309 l 6 972 l 282 972 l 524 560 l 549 560 l 791 972 l 1067 972 z "},"Ź":{"ha":941,"x_min":29,"x_max":912,"o":"m 353 1030 l 435 1225 l 668 1225 l 586 1030 l 353 1030 m 29 0 l 29 212 l 576 734 l 576 755 l 43 755 l 43 972 l 912 972 l 912 762 l 360 239 l 360 219 l 905 219 l 905 0 l 29 0 z "},"ź":{"ha":941,"x_min":29,"x_max":912,"o":"m 353 1030 l 435 1225 l 668 1225 l 586 1030 l 353 1030 m 29 0 l 29 212 l 576 734 l 576 755 l 43 755 l 43 972 l 912 972 l 912 762 l 360 239 l 360 219 l 905 219 l 905 0 l 29 0 z "},"Ż":{"ha":941,"x_min":29,"x_max":912,"o":"m 470 1040 q 397 1068 427 1040 q 367 1138 367 1096 q 397 1208 367 1180 q 470 1236 427 1236 q 543 1208 513 1236 q 573 1138 573 1180 q 543 1068 573 1096 q 470 1040 513 1040 m 29 0 l 29 212 l 576 734 l 576 755 l 43 755 l 43 972 l 912 972 l 912 762 l 360 239 l 360 219 l 905 219 l 905 0 l 29 0 z "},"ż":{"ha":941,"x_min":29,"x_max":912,"o":"m 470 1040 q 397 1068 427 1040 q 367 1138 367 1096 q 397 1208 367 1180 q 470 1236 427 1236 q 543 1208 513 1236 q 573 1138 573 1180 q 543 1068 573 1096 q 470 1040 513 1040 m 29 0 l 29 212 l 576 734 l 576 755 l 43 755 l 43 972 l 912 972 l 912 762 l 360 239 l 360 219 l 905 219 l 905 0 l 29 0 z "},"Ž":{"ha":941,"x_min":29,"x_max":912,"o":"m 155 1198 l 377 1198 l 440 1128 l 501 1128 l 564 1198 l 786 1198 l 629 1004 l 311 1004 l 155 1198 m 29 0 l 29 212 l 576 734 l 576 755 l 43 755 l 43 972 l 912 972 l 912 762 l 360 239 l 360 219 l 905 219 l 905 0 l 29 0 z "},"ž":{"ha":941,"x_min":29,"x_max":912,"o":"m 155 1198 l 377 1198 l 440 1128 l 501 1128 l 564 1198 l 786 1198 l 629 1004 l 311 1004 l 155 1198 m 29 0 l 29 212 l 576 734 l 576 755 l 43 755 l 43 972 l 912 972 l 912 762 l 360 239 l 360 219 l 905 219 l 905 0 l 29 0 z "},"ƒ":{"ha":885,"x_min":52,"x_max":833,"o":"m 688 825 q 597 796 632 825 q 562 703 562 767 l 562 640 l 833 640 l 833 440 l 562 440 l 562 275 q 538 140 562 198 q 470 49 513 83 q 374 0 427 16 q 257 -16 321 -16 q 143 -4 199 -16 q 52 30 88 8 l 52 221 q 197 191 124 191 q 288 220 254 191 q 323 314 323 249 l 323 440 l 52 440 l 52 640 l 323 640 l 323 740 q 347 876 323 818 q 415 966 372 933 q 512 1016 458 1000 q 629 1031 565 1031 q 742 1020 687 1031 q 833 986 798 1008 l 833 795 q 688 825 755 825 z "},"Ǎ":{"ha":1129,"x_min":12,"x_max":1118,"o":"m 724 1004 l 406 1004 l 250 1198 l 472 1198 l 534 1128 l 596 1128 l 659 1198 l 881 1198 l 724 1004 m 848 0 l 794 152 l 336 152 l 281 0 l 12 0 l 382 972 l 748 972 l 1118 0 l 848 0 m 405 347 l 724 347 l 589 727 l 542 727 l 405 347 z "},"ǎ":{"ha":1129,"x_min":12,"x_max":1118,"o":"m 724 1004 l 406 1004 l 250 1198 l 472 1198 l 534 1128 l 596 1128 l 659 1198 l 881 1198 l 724 1004 m 848 0 l 794 152 l 336 152 l 281 0 l 12 0 l 382 972 l 748 972 l 1118 0 l 848 0 m 405 347 l 724 347 l 589 727 l 542 727 l 405 347 z "},"Ǐ":{"ha":354,"x_min":-138,"x_max":493,"o":"m -138 1198 l 85 1198 l 147 1128 l 208 1128 l 271 1198 l 493 1198 l 337 1004 l 18 1004 l -138 1198 m 46 0 l 46 972 l 308 972 l 308 0 l 46 0 z "},"ǐ":{"ha":354,"x_min":-138,"x_max":493,"o":"m -138 1198 l 85 1198 l 147 1128 l 208 1128 l 271 1198 l 493 1198 l 337 1004 l 18 1004 l -138 1198 m 46 0 l 46 972 l 308 972 l 308 0 l 46 0 z "},"Ǒ":{"ha":1137,"x_min":29,"x_max":1109,"o":"m 254 1202 l 477 1202 l 539 1133 l 601 1133 l 663 1202 l 886 1202 l 729 1008 l 411 1008 l 254 1202 m 570 -33 q 287 33 410 -33 q 96 216 163 98 q 29 486 29 334 q 96 756 29 639 q 287 939 163 874 q 570 1004 410 1004 q 960 861 811 1004 q 1109 486 1109 718 q 1042 216 1109 334 q 852 33 975 98 q 570 -33 729 -33 m 570 193 q 770 274 690 193 q 850 486 850 355 q 770 699 850 618 q 570 779 690 779 q 368 699 448 779 q 288 486 288 618 q 368 274 288 355 q 570 193 448 193 z "},"ǒ":{"ha":1137,"x_min":29,"x_max":1109,"o":"m 254 1202 l 477 1202 l 539 1133 l 601 1133 l 663 1202 l 886 1202 l 729 1008 l 411 1008 l 254 1202 m 570 -33 q 287 33 410 -33 q 96 216 163 98 q 29 486 29 334 q 96 756 29 639 q 287 939 163 874 q 570 1004 410 1004 q 960 861 811 1004 q 1109 486 1109 718 q 1042 216 1109 334 q 852 33 975 98 q 570 -33 729 -33 m 570 193 q 770 274 690 193 q 850 486 850 355 q 770 699 850 618 q 570 779 690 779 q 368 699 448 779 q 288 486 288 618 q 368 274 288 355 q 570 193 448 193 z "},"Ǔ":{"ha":1053,"x_min":46,"x_max":1007,"o":"m 212 1198 l 434 1198 l 496 1128 l 558 1128 l 621 1198 l 842 1198 l 686 1004 l 368 1004 l 212 1198 m 527 -33 q 168 77 290 -33 q 46 411 46 187 l 46 972 l 309 972 l 309 418 q 364 247 309 307 q 527 187 418 187 q 691 248 636 187 q 747 418 747 308 l 747 972 l 1007 972 l 1007 412 q 527 -33 1007 -33 z "},"ǔ":{"ha":1053,"x_min":46,"x_max":1007,"o":"m 212 1198 l 434 1198 l 496 1128 l 558 1128 l 621 1198 l 842 1198 l 686 1004 l 368 1004 l 212 1198 m 527 -33 q 168 77 290 -33 q 46 411 46 187 l 46 972 l 309 972 l 309 418 q 364 247 309 307 q 527 187 418 187 q 691 248 636 187 q 747 418 747 308 l 747 972 l 1007 972 l 1007 412 q 527 -33 1007 -33 z "},"Ǫ":{"ha":1137,"x_min":29,"x_max":1109,"o":"m 1109 486 q 990 143 1109 281 q 673 -24 872 5 q 654 -71 654 -43 q 671 -113 654 -95 q 729 -131 688 -132 l 729 -278 q 665 -274 696 -278 q 598 -257 633 -269 q 537 -227 563 -245 q 494 -177 511 -208 q 477 -105 477 -145 q 495 -29 477 -62 q 156 134 283 -7 q 29 486 29 275 q 96 756 29 639 q 287 939 163 874 q 570 1004 410 1004 q 960 861 811 1004 q 1109 486 1109 718 m 288 486 q 368 274 288 355 q 570 193 448 193 q 770 274 690 193 q 850 486 850 355 q 770 699 850 618 q 570 779 690 779 q 368 699 448 779 q 288 486 288 618 z "},"Ș":{"ha":987,"x_min":20,"x_max":961,"o":"m 488 -33 q 136 51 252 -33 q 23 309 20 134 l 259 309 q 320 210 264 245 q 488 174 377 174 q 646 203 591 173 q 701 283 701 233 q 666 352 701 326 q 551 390 631 377 l 429 411 q 367 422 392 417 q 307 435 342 427 q 248 452 272 444 q 195 473 224 460 q 146 501 165 486 q 107 537 127 516 q 75 583 87 558 q 56 638 64 607 q 49 706 49 669 q 163 926 49 847 q 488 1004 277 1004 q 636 994 570 1004 q 758 959 702 983 q 852 895 814 934 q 912 799 890 857 q 933 667 933 741 l 699 667 q 484 800 677 800 q 346 772 393 800 q 300 694 300 744 q 427 594 300 615 l 532 575 q 571 568 545 573 q 650 554 623 559 q 726 537 677 549 q 801 511 774 524 q 863 476 828 498 q 916 427 898 454 q 948 361 935 400 q 961 275 961 323 q 841 45 961 124 q 488 -33 721 -33 m 439 -505 q 454 -267 456 -404 l 353 -267 l 353 -73 l 637 -73 l 637 -118 q 621 -359 637 -258 q 582 -505 604 -460 l 439 -505 z "},"ș":{"ha":987,"x_min":20,"x_max":961,"o":"m 488 -33 q 136 51 252 -33 q 23 309 20 134 l 259 309 q 320 210 264 245 q 488 174 377 174 q 646 203 591 173 q 701 283 701 233 q 666 352 701 326 q 551 390 631 377 l 429 411 q 367 422 392 417 q 307 435 342 427 q 248 452 272 444 q 195 473 224 460 q 146 501 165 486 q 107 537 127 516 q 75 583 87 558 q 56 638 64 607 q 49 706 49 669 q 163 926 49 847 q 488 1004 277 1004 q 636 994 570 1004 q 758 959 702 983 q 852 895 814 934 q 912 799 890 857 q 933 667 933 741 l 699 667 q 484 800 677 800 q 346 772 393 800 q 300 694 300 744 q 427 594 300 615 l 532 575 q 571 568 545 573 q 650 554 623 559 q 726 537 677 549 q 801 511 774 524 q 863 476 828 498 q 916 427 898 454 q 948 361 935 400 q 961 275 961 323 q 841 45 961 124 q 488 -33 721 -33 m 439 -505 q 454 -267 456 -404 l 353 -267 l 353 -73 l 637 -73 l 637 -118 q 621 -359 637 -258 q 582 -505 604 -460 l 439 -505 z "},"Ț":{"ha":1061,"x_min":41,"x_max":1021,"o":"m 41 972 l 1021 972 l 1021 755 l 661 755 l 661 0 l 401 0 l 401 755 l 41 755 l 41 972 m 391 -267 l 391 -73 l 676 -73 l 676 -118 q 660 -359 676 -258 q 621 -505 643 -460 l 477 -505 q 492 -267 494 -404 l 391 -267 z "},"ț":{"ha":1061,"x_min":41,"x_max":1021,"o":"m 41 972 l 1021 972 l 1021 755 l 661 755 l 661 0 l 401 0 l 401 755 l 41 755 l 41 972 m 391 -267 l 391 -73 l 676 -73 l 676 -118 q 660 -359 676 -258 q 621 -505 643 -460 l 477 -505 q 492 -267 494 -404 l 391 -267 z "},"ˆ":{"ha":631,"x_min":0,"x_max":631,"o":"m 0 787 l 156 981 l 475 981 l 631 787 l 408 787 l 346 857 l 285 857 l 222 787 l 0 787 z "},"ˇ":{"ha":631,"x_min":0,"x_max":631,"o":"m 0 955 l 222 955 l 285 886 l 346 886 l 408 955 l 631 955 l 475 760 l 156 760 l 0 955 z "},"˘":{"ha":497,"x_min":-1,"x_max":499,"o":"m 249 787 q 56 832 114 787 q 0 981 -1 876 l 162 981 q 185 922 162 943 q 249 901 208 901 q 313 922 290 901 q 336 981 336 943 l 498 981 q 442 832 499 876 q 249 787 385 787 z "},"˙":{"ha":205,"x_min":0,"x_max":206,"o":"m 103 796 q 30 824 60 796 q 0 895 0 852 q 30 965 0 937 q 103 993 60 993 q 176 965 146 993 q 206 895 206 937 q 176 824 206 852 q 103 796 146 796 z "},"˚":{"ha":305,"x_min":0,"x_max":306,"o":"m 262 758 q 240 735 262 758 q 154 713 218 713 q 45 758 90 713 q 0 865 0 802 q 45 972 0 928 q 154 1017 90 1017 q 262 972 218 1017 q 306 865 306 928 q 262 758 306 802 m 154 827 q 182 838 171 827 q 192 866 193 848 q 181 894 191 884 q 154 904 170 904 q 125 893 136 904 q 115 866 115 883 q 125 838 115 848 q 154 827 136 827 z "},"˛":{"ha":280,"x_min":0,"x_max":280,"o":"m 252 -280 q 188 -276 220 -280 q 121 -259 156 -271 q 60 -229 86 -248 q 17 -179 34 -211 q 0 -108 0 -148 q 15 -39 0 -70 q 54 10 29 -9 q 108 42 79 29 q 170 61 136 55 q 229 70 203 67 q 280 72 255 72 l 280 0 q 201 -22 226 0 q 177 -73 177 -44 q 194 -116 177 -98 q 252 -133 211 -134 l 252 -280 z "},"˜":{"ha":538,"x_min":-4,"x_max":547,"o":"m 372 785 q 308 796 340 785 q 254 822 275 808 q 204 847 232 836 q 152 859 176 859 q 104 844 122 859 q 82 803 85 829 l 2 803 q 7 885 -4 849 q 44 942 19 921 q 100 974 68 963 q 168 985 131 985 q 231 973 199 985 q 284 948 262 962 q 334 922 307 934 q 387 911 362 911 q 435 926 417 911 q 456 966 453 941 l 537 966 q 498 831 547 877 q 372 785 449 785 z "},"˝":{"ha":590,"x_min":0,"x_max":614,"o":"m 0 787 l 82 981 l 315 981 l 233 787 l 0 787 m 300 787 l 382 981 l 614 981 l 532 787 l 300 787 z "},"̦":{"ha":0,"x_min":-288,"x_max":-3,"o":"m -203 -505 q -187 -267 -184 -400 l -288 -267 l -288 -73 l -3 -73 l -3 -118 q -20 -359 -3 -258 q -59 -505 -37 -460 l -203 -505 z "},"Δ":{"ha":1129,"x_min":12,"x_max":1118,"o":"m 748 972 l 1118 0 l 12 0 l 382 972 l 748 972 m 359 211 l 771 211 l 581 726 l 550 726 l 359 211 z "},"Ω":{"ha":1108,"x_min":29,"x_max":1080,"o":"m 29 0 l 29 203 l 170 203 l 170 241 q 73 385 108 302 q 38 559 38 467 q 75 733 38 651 q 177 874 111 814 q 340 969 243 935 q 554 1004 438 1004 q 768 969 671 1004 q 932 874 866 935 q 1034 733 998 814 q 1071 559 1071 651 q 1037 384 1071 467 q 940 241 1002 302 l 940 203 l 1080 203 l 1080 0 l 665 0 l 665 300 q 769 386 728 330 q 811 528 811 442 q 740 705 811 631 q 554 779 669 779 q 369 705 440 779 q 298 528 298 631 q 339 386 298 442 q 444 300 381 330 l 444 0 l 29 0 z "},"μ":{"ha":911,"x_min":46,"x_max":865,"o":"m 603 787 l 865 787 l 865 0 l 609 0 l 603 106 l 578 106 q 472 15 538 47 q 331 -18 405 -18 q 308 -16 315 -18 l 308 -174 l 46 -174 l 46 787 l 308 787 l 308 331 q 320 264 308 292 q 353 221 332 236 q 397 200 374 207 q 448 193 420 193 q 561 234 519 193 q 603 315 603 274 l 603 787 z "},"π":{"ha":1093,"x_min":46,"x_max":1048,"o":"m 983 210 q 1020 215 998 210 q 1048 220 1042 220 l 1048 39 q 886 -9 1004 -9 q 796 2 836 -9 q 726 38 757 13 q 679 109 695 64 q 662 216 662 153 l 662 597 l 410 597 l 410 0 l 148 0 l 148 597 l 46 597 l 46 787 l 1024 787 l 1024 597 l 922 597 l 922 265 q 939 223 922 237 q 983 210 955 210 z "},"Ẁ":{"ha":1455,"x_min":26,"x_max":1430,"o":"m 847 1030 l 614 1030 l 532 1225 l 765 1225 l 847 1030 m 234 0 l 26 972 l 290 972 l 428 279 l 452 279 l 621 972 l 835 972 l 1004 279 l 1028 279 l 1166 972 l 1430 972 l 1222 0 l 869 0 l 740 565 l 716 565 l 587 0 l 234 0 z "},"ẁ":{"ha":1455,"x_min":26,"x_max":1430,"o":"m 847 1030 l 614 1030 l 532 1225 l 765 1225 l 847 1030 m 234 0 l 26 972 l 290 972 l 428 279 l 452 279 l 621 972 l 835 972 l 1004 279 l 1028 279 l 1166 972 l 1430 972 l 1222 0 l 869 0 l 740 565 l 716 565 l 587 0 l 234 0 z "},"Ẃ":{"ha":1455,"x_min":26,"x_max":1430,"o":"m 612 1030 l 694 1225 l 927 1225 l 845 1030 l 612 1030 m 234 0 l 26 972 l 290 972 l 428 279 l 452 279 l 621 972 l 835 972 l 1004 279 l 1028 279 l 1166 972 l 1430 972 l 1222 0 l 869 0 l 740 565 l 716 565 l 587 0 l 234 0 z "},"ẃ":{"ha":1455,"x_min":26,"x_max":1430,"o":"m 612 1030 l 694 1225 l 927 1225 l 845 1030 l 612 1030 m 234 0 l 26 972 l 290 972 l 428 279 l 452 279 l 621 972 l 835 972 l 1004 279 l 1028 279 l 1166 972 l 1430 972 l 1222 0 l 869 0 l 740 565 l 716 565 l 587 0 l 234 0 z "},"Ẅ":{"ha":1455,"x_min":26,"x_max":1430,"o":"m 565 1040 q 492 1068 522 1040 q 462 1138 462 1096 q 492 1208 462 1180 q 565 1236 522 1236 q 638 1208 608 1236 q 668 1138 668 1180 q 638 1068 668 1096 q 565 1040 608 1040 m 894 1040 q 821 1068 850 1040 q 791 1138 791 1096 q 821 1208 791 1180 q 894 1236 850 1236 q 966 1208 936 1236 q 996 1138 996 1180 q 966 1068 996 1096 q 894 1040 936 1040 m 234 0 l 26 972 l 290 972 l 428 279 l 452 279 l 621 972 l 835 972 l 1004 279 l 1028 279 l 1166 972 l 1430 972 l 1222 0 l 869 0 l 740 565 l 716 565 l 587 0 l 234 0 z "},"ẅ":{"ha":1455,"x_min":26,"x_max":1430,"o":"m 565 1040 q 492 1068 522 1040 q 462 1138 462 1096 q 492 1208 462 1180 q 565 1236 522 1236 q 638 1208 608 1236 q 668 1138 668 1180 q 638 1068 668 1096 q 565 1040 608 1040 m 894 1040 q 821 1068 850 1040 q 791 1138 791 1096 q 821 1208 791 1180 q 894 1236 850 1236 q 966 1208 936 1236 q 996 1138 996 1180 q 966 1068 996 1096 q 894 1040 936 1040 m 234 0 l 26 972 l 290 972 l 428 279 l 452 279 l 621 972 l 835 972 l 1004 279 l 1028 279 l 1166 972 l 1430 972 l 1222 0 l 869 0 l 740 565 l 716 565 l 587 0 l 234 0 z "},"ẞ":{"ha":1103,"x_min":46,"x_max":1074,"o":"m 762 575 q 895 556 834 580 q 994 488 956 532 q 1053 390 1032 445 q 1074 275 1074 335 q 980 55 1074 135 q 721 -26 886 -26 q 372 271 372 -26 l 588 271 q 628 185 591 218 q 718 152 665 152 q 814 185 778 152 q 850 275 850 219 q 811 368 850 332 q 718 404 772 404 q 629 373 665 404 l 413 373 l 649 755 l 434 755 q 311 619 311 755 l 311 0 l 46 0 l 46 668 q 67 813 46 754 q 133 908 89 873 q 238 958 177 943 q 385 972 299 972 l 1023 972 l 762 575 z "},"Ỳ":{"ha":1073,"x_min":6,"x_max":1067,"o":"m 655 1030 l 422 1030 l 340 1225 l 573 1225 l 655 1030 m 1067 972 l 667 308 l 667 0 l 406 0 l 406 309 l 6 972 l 282 972 l 524 560 l 549 560 l 791 972 l 1067 972 z "},"ỳ":{"ha":1073,"x_min":6,"x_max":1067,"o":"m 655 1030 l 422 1030 l 340 1225 l 573 1225 l 655 1030 m 1067 972 l 667 308 l 667 0 l 406 0 l 406 309 l 6 972 l 282 972 l 524 560 l 549 560 l 791 972 l 1067 972 z "},"–":{"ha":1042,"x_min":46,"x_max":996,"o":"m 46 362 l 46 581 l 996 581 l 996 362 l 46 362 z "},"—":{"ha":1134,"x_min":46,"x_max":1088,"o":"m 46 362 l 46 581 l 1088 581 l 1088 362 l 46 362 z "},"‘":{"ha":402,"x_min":41,"x_max":362,"o":"m 265 972 q 248 703 245 848 l 362 703 l 362 484 l 41 484 l 41 534 q 59 808 41 693 q 103 972 78 923 l 265 972 z "},"’":{"ha":402,"x_min":41,"x_max":362,"o":"m 138 485 q 155 755 158 609 l 41 755 l 41 973 l 362 973 l 362 922 q 343 649 362 764 q 300 485 325 534 l 138 485 z "},"‚":{"ha":402,"x_min":41,"x_max":362,"o":"m 138 -270 q 155 0 158 -146 l 41 0 l 41 219 l 362 219 l 362 168 q 343 -106 362 9 q 300 -270 325 -220 l 138 -270 z "},"“":{"ha":715,"x_min":43,"x_max":675,"o":"m 244 972 q 229 703 227 859 l 332 703 l 332 484 l 43 484 l 43 534 q 59 808 43 692 q 98 972 76 923 l 244 972 m 587 972 q 572 703 569 859 l 675 703 l 675 484 l 385 484 l 385 534 q 402 808 385 692 q 441 972 418 923 l 587 972 z "},"”":{"ha":715,"x_min":41,"x_max":673,"o":"m 128 485 q 144 755 146 603 l 41 755 l 41 973 l 330 973 l 330 922 q 313 649 330 764 q 274 485 296 534 l 128 485 m 471 485 q 486 755 489 599 l 383 755 l 383 973 l 673 973 l 673 922 q 656 649 673 764 q 617 485 640 534 l 471 485 z "},"„":{"ha":715,"x_min":41,"x_max":673,"o":"m 128 -295 q 144 -26 146 -177 l 41 -26 l 41 193 l 330 193 l 330 142 q 313 -131 330 -16 q 274 -295 296 -245 l 128 -295 m 471 -295 q 486 -26 489 -181 l 383 -26 l 383 193 l 673 193 l 673 142 q 656 -131 673 -16 q 617 -295 640 -245 l 471 -295 z "},"†":{"ha":861,"x_min":58,"x_max":803,"o":"m 803 809 l 803 602 l 539 602 l 539 338 l 321 338 l 321 602 l 58 602 l 58 809 l 321 809 l 321 1073 l 539 1073 l 539 809 l 803 809 z "},"‡":{"ha":861,"x_min":58,"x_max":803,"o":"m 539 267 l 803 267 l 803 59 l 539 59 l 539 -205 l 321 -205 l 321 59 l 58 59 l 58 267 l 321 267 l 321 602 l 58 602 l 58 809 l 321 809 l 321 1073 l 539 1073 l 539 809 l 803 809 l 803 602 l 539 602 l 539 267 z "},"•":{"ha":659,"x_min":116,"x_max":544,"o":"m 480 335 q 449 304 480 335 q 330 272 417 272 q 179 335 242 272 q 116 486 116 399 q 179 638 116 574 q 330 701 242 701 q 480 638 417 701 q 544 486 544 574 q 480 335 544 399 z "},"…":{"ha":1088,"x_min":44,"x_max":1046,"o":"m 275 21 q 255 2 275 21 q 180 -18 235 -18 q 84 21 124 -18 q 44 116 44 61 q 84 210 44 171 q 180 249 124 249 q 275 210 235 249 q 315 116 315 171 q 275 21 315 61 m 641 21 q 621 2 641 21 q 545 -18 601 -18 q 450 21 490 -18 q 410 116 410 61 q 450 210 410 171 q 545 249 490 249 q 641 210 601 249 q 681 116 681 171 q 641 21 681 61 m 1006 21 q 986 2 1006 21 q 911 -18 966 -18 q 815 21 855 -18 q 775 116 775 61 q 815 210 775 171 q 911 249 855 249 q 1006 210 966 249 q 1046 116 1046 171 q 1006 21 1046 61 z "},"‰":{"ha":1841,"x_min":52,"x_max":1788,"o":"m 385 -35 l 270 44 l 901 1012 l 1016 933 l 385 -35 m 304 491 q 117 561 181 491 q 52 739 52 631 q 117 916 52 846 q 304 986 181 986 q 491 916 427 986 q 555 739 555 846 q 491 561 555 631 q 304 491 427 491 m 243 679 q 253 667 243 679 q 304 655 264 655 q 366 679 345 655 q 387 739 387 703 q 366 799 387 775 q 304 822 345 822 q 243 799 264 822 q 222 739 222 775 q 243 679 222 703 m 981 -14 q 793 56 858 -14 q 729 235 729 126 q 793 413 729 342 q 981 483 858 483 q 1168 413 1104 483 q 1233 235 1233 342 q 1168 56 1233 126 q 981 -14 1104 -14 m 1536 -14 q 1349 56 1413 -14 q 1284 235 1284 126 q 1349 413 1284 342 q 1536 483 1413 483 q 1724 413 1659 483 q 1788 235 1788 342 q 1724 56 1788 126 q 1536 -14 1659 -14 m 919 176 q 929 164 919 176 q 981 152 940 152 q 1042 175 1021 152 q 1063 235 1063 199 q 1042 294 1063 271 q 981 317 1021 317 q 919 294 940 317 q 898 235 898 271 q 919 176 898 199 m 1475 175 q 1485 164 1475 175 q 1536 152 1495 152 q 1597 175 1577 152 q 1618 235 1618 199 q 1597 294 1618 271 q 1536 317 1577 317 q 1475 294 1495 317 q 1454 235 1454 271 q 1475 175 1454 199 z "},"‹":{"ha":634,"x_min":69,"x_max":565,"o":"m 565 151 l 294 151 l 69 486 l 294 822 l 565 822 l 340 486 l 565 151 z "},"›":{"ha":634,"x_min":69,"x_max":565,"o":"m 69 151 l 294 486 l 69 822 l 340 822 l 565 486 l 340 151 l 69 151 z "},"€":{"ha":1107,"x_min":29,"x_max":1079,"o":"m 611 193 q 755 237 696 193 q 842 368 815 280 l 1079 368 q 1035 211 1067 281 q 958 97 1002 142 q 856 22 913 52 q 738 -20 798 -7 q 611 -33 677 -33 q 285 73 418 -33 q 113 357 151 179 l 29 357 l 29 452 l 100 452 q 100 486 100 458 l 100 503 l 29 503 l 29 598 l 109 598 q 278 894 143 783 q 611 1004 414 1004 q 737 992 677 1004 q 855 951 797 980 q 958 877 913 922 q 1035 763 1002 832 q 1079 606 1067 694 l 842 606 q 755 736 815 694 q 611 779 696 779 q 458 730 524 779 q 363 598 392 682 l 576 598 l 576 503 l 346 503 l 346 486 q 347 452 346 463 l 576 452 l 576 357 l 370 357 q 465 237 401 281 q 611 193 529 193 z "},"№":{"ha":1304,"x_min":46,"x_max":1276,"o":"m 1024 480 q 845 553 917 480 q 773 730 773 625 q 845 907 773 836 q 1024 979 916 979 q 1204 907 1133 979 q 1276 730 1276 836 q 1204 553 1276 625 q 1024 480 1133 480 m 46 0 l 46 972 l 262 972 l 462 460 l 485 460 l 485 972 l 715 972 l 715 0 l 499 0 l 300 513 l 277 513 l 277 0 l 46 0 m 1024 647 q 1084 671 1061 647 q 1107 730 1107 694 q 1084 789 1107 765 q 1024 812 1061 812 q 965 789 989 812 q 942 730 942 765 q 965 671 942 694 q 1024 647 989 647 m 795 182 l 795 390 l 1253 390 l 1253 182 l 795 182 z "},"™":{"ha":975,"x_min":41,"x_max":935,"o":"m 760 972 l 935 972 l 935 539 l 814 539 l 814 800 l 801 800 l 755 539 l 629 539 l 583 800 l 570 800 l 570 539 l 449 539 l 449 862 l 323 862 l 323 539 l 191 539 l 191 862 l 41 862 l 41 972 l 625 972 l 683 668 l 701 668 l 760 972 z "},"∂":{"ha":921,"x_min":26,"x_max":895,"o":"m 442 998 q 584 982 519 998 q 707 928 649 966 q 806 833 766 891 q 871 688 847 776 q 895 488 895 600 q 452 -26 895 -26 q 137 66 249 -26 q 26 313 26 157 q 55 452 26 391 q 137 550 84 513 q 258 607 189 588 q 410 626 327 626 q 652 565 572 626 q 442 801 654 801 q 316 773 367 801 q 254 688 266 745 l 44 688 q 95 859 45 788 q 233 963 144 929 q 442 998 321 998 m 454 170 q 591 210 540 170 q 642 318 642 250 q 592 424 642 387 q 454 462 543 462 q 313 424 364 462 q 262 318 262 386 q 314 210 262 250 q 454 170 366 170 z "},"∏":{"ha":829,"x_min":46,"x_max":783,"o":"m 46 1042 l 783 1042 l 783 -174 l 522 -174 l 522 824 l 308 824 l 308 -174 l 46 -174 l 46 1042 z "},"∑":{"ha":824,"x_min":46,"x_max":778,"o":"m 46 -174 l 46 45 l 419 424 l 46 824 l 46 1042 l 778 1042 l 778 824 l 331 824 l 692 440 l 692 408 l 331 45 l 778 45 l 778 -174 l 46 -174 z "},"−":{"ha":791,"x_min":58,"x_max":734,"o":"m 58 377 l 58 596 l 734 596 l 734 377 l 58 377 z "},"√":{"ha":957,"x_min":58,"x_max":899,"o":"m 346 -174 l 206 326 l 58 326 l 58 544 l 357 544 l 486 77 l 501 77 l 688 1042 l 899 1042 l 654 -174 l 346 -174 z "},"∞":{"ha":977,"x_min":58,"x_max":919,"o":"m 709 730 q 866 663 814 730 q 919 488 919 595 q 866 310 919 377 q 709 242 814 242 q 640 252 671 242 q 581 284 608 262 q 534 328 554 305 q 490 385 514 351 q 429 311 456 338 q 360 262 402 283 q 269 242 319 242 q 110 310 163 242 q 58 488 58 377 q 111 663 58 595 q 269 730 163 730 q 339 720 307 730 q 398 688 371 709 q 445 644 425 667 q 490 587 465 621 q 534 644 514 621 q 581 688 554 667 q 640 720 608 709 q 709 730 671 730 m 294 398 q 350 418 323 398 q 418 488 376 438 q 349 557 375 537 q 294 576 322 576 q 236 551 254 576 q 218 488 218 525 q 236 423 218 448 q 294 398 254 398 m 684 398 q 742 423 724 398 q 760 488 760 448 q 742 551 760 525 q 684 576 724 576 q 629 557 655 576 q 560 488 604 538 q 628 418 602 437 q 684 398 654 398 z "},"∫":{"ha":920,"x_min":69,"x_max":850,"o":"m 274 -174 q 160 -162 216 -174 q 69 -128 105 -150 l 69 62 q 214 33 146 33 q 306 62 271 33 q 340 155 340 91 l 340 740 q 365 876 340 818 q 432 966 389 933 q 529 1016 475 1000 q 646 1031 582 1031 q 759 1020 704 1031 q 850 986 814 1008 l 850 795 q 706 825 772 825 q 615 796 650 825 q 580 703 580 767 l 580 118 q 555 -18 580 40 q 488 -109 531 -75 q 391 -158 444 -142 q 274 -174 338 -174 z "},"≈":{"ha":788,"x_min":54,"x_max":734,"o":"m 521 500 q 440 515 481 500 q 373 548 400 530 q 311 579 345 565 q 247 594 277 594 q 186 575 209 594 q 161 524 164 556 l 60 524 q 68 627 54 582 q 112 698 82 671 q 182 739 142 725 q 267 752 222 752 q 346 738 307 752 q 413 706 386 724 q 475 674 441 689 q 541 659 510 659 q 601 678 578 660 q 627 728 624 696 l 728 728 q 720 626 734 671 q 675 555 705 581 q 605 514 644 528 q 521 500 566 500 m 521 219 q 440 235 481 220 q 373 267 400 250 q 311 298 345 284 q 247 313 277 313 q 186 294 209 313 q 161 243 164 275 l 60 243 q 68 345 54 300 q 112 417 82 390 q 182 457 142 444 q 267 471 222 471 q 346 457 307 471 q 413 425 386 442 q 475 393 441 408 q 541 377 510 378 q 601 397 578 378 q 627 447 624 416 l 728 447 q 720 345 734 390 q 675 274 705 300 q 605 234 644 248 q 521 219 566 220 z "},"≠":{"ha":791,"x_min":58,"x_max":734,"o":"m 734 517 l 536 517 l 508 456 l 734 456 l 734 239 l 411 239 l 330 58 l 64 58 l 144 239 l 58 239 l 58 456 l 242 456 l 270 517 l 58 517 l 58 735 l 367 735 l 462 948 l 728 948 l 633 735 l 734 735 l 734 517 z "},"≤":{"ha":791,"x_min":58,"x_max":734,"o":"m 726 304 l 58 532 l 58 825 l 726 1058 l 726 832 l 262 692 l 262 665 l 726 526 l 726 304 m 58 0 l 58 219 l 734 219 l 734 0 l 58 0 z "},"≥":{"ha":814,"x_min":81,"x_max":757,"o":"m 89 304 l 89 526 l 552 665 l 552 692 l 89 832 l 89 1058 l 757 825 l 757 532 l 89 304 m 757 0 l 81 0 l 81 219 l 757 219 l 757 0 z "},"◊":{"ha":856,"x_min":55,"x_max":802,"o":"m 298 0 q 274 15 279 0 l 62 472 q 62 500 55 486 l 274 957 q 298 972 279 972 l 560 972 q 583 957 576 972 l 794 500 q 794 472 802 486 l 583 15 q 560 0 576 0 l 298 0 m 428 189 l 565 486 l 428 785 l 292 486 l 428 189 z "}}}
